<svg width="386" height="247" xmlns="http://www.w3.org/2000/svg" xmlns:xlink="http://www.w3.org/1999/xlink" xml:space="preserve" overflow="hidden"><g transform="translate(-860 -192)"><path d="M49.0928 218.663C49.0928 222.045 49.015 225.428 49.1146 228.807 49.2151 232.217 50.1969 235.322 53.1103 237.435 55.1789 238.935 57.5674 239.689 60.1136 239.69 126.781 239.706 193.449 239.703 260.117 239.703 285.039 239.703 309.961 239.702 334.883 239.704 338.864 239.704 342.115 237.265 342.008 232.565 341.936 229.392 342.895 226.766 345.239 224.51 346.911 222.9 348.539 221.217 350.072 219.445 351.648 217.623 352.291 215.6 352.291 213.278 352.291 193.574 352.291 173.87 352.291 154.166 352.291 128.827 352.281 103.487 352.311 78.1477 352.314 76.3557 351.682 74.9072 350.529 73.6473 349.274 72.2758 347.977 70.9387 346.648 69.6388 344.914 67.9427 344.128 65.9325 344.134 63.495 344.168 49.5938 344.155 35.6925 344.148 21.7912 344.146 16.7547 341.081 13.4211 336.888 12.0187 334.689 11.2831 332.426 11.0222 330.124 11.0221 240.914 11.0206 151.703 11.0132 62.4931 11.0521 59.3242 11.0535 56.1911 11.5325 53.461 13.5047 51.0166 15.2706 49.7989 17.6487 49.3376 20.5379 48.8388 23.6611 49.1421 26.8009 49.1089 29.9317 49.051 35.3998 49.0928 40.8689 49.0928 46.3376" stroke="#000000" stroke-width="2.25426" stroke-linecap="round" stroke-linejoin="round" fill="none" transform="matrix(1.00331 0 0 1 860 192)"/><path d="M331.752 185.726C332.197 186.349 331.981 187.059 331.993 187.73 332.022 189.441 331.971 191.154 332.014 192.864 332.042 193.99 331.618 194.689 330.503 195.006 329.677 195.242 328.869 195.498 327.995 195.498 278.568 195.494 229.141 195.498 179.715 195.487 176.177 195.486 174.385 192.937 174.234 189.857 174.168 188.532 174.031 187.184 174.417 185.84 174.578 185.278 174.182 184.628 174.187 183.973 174.22 179.381 174.111 174.786 174.234 170.198 174.33 166.647 174.296 163.1 174.324 159.552 174.349 156.546 174.33 153.54 174.33 150.535 174.33 148.344 174.983 147.681 177.21 147.657 178.838 147.64 180.466 147.654 182.094 147.654 228.515 147.654 274.936 147.66 321.357 147.641 324.243 147.639 327.124 147.605 329.999 147.899 331.418 148.045 332 148.634 332.002 150.034 332.004 152.121 332.087 154.213 331.975 156.294 331.891 157.846 332.009 159.385 332.004 160.929 331.999 162.474 332.003 164.018 332.003 165.563 332.003 167.108 332.003 168.652 332.003 170.197 332.003 171.7 332.003 173.202 332.003 174.705 332.003 176.25 332.003 177.794 332.003 179.339 332.003 180.884 331.999 182.428 332.005 183.973 332.007 184.531 332.034 185.089 331.752 185.601" stroke="#000000" stroke-width="1.50284" stroke-linecap="round" stroke-linejoin="round" fill="none" transform="matrix(1.00331 0 0 1 860 192)"/><path d="M248.845 53.7266C248.304 52.3767 248.616 50.9678 248.619 49.5938 248.625 46.5618 248.675 46.4517 245.464 46.4539 221.627 46.4704 197.791 46.467 173.954 46.4537 172.336 46.4528 171.931 46.3972 171.855 48.3426 171.76 50.7591 171.74 53.1864 171.947 55.6054 172.014 56.3914 172.547 56.6305 173.203 56.7264 173.448 56.7623 173.703 56.7322 173.954 56.7322 197.54 56.7322 221.126 56.7326 244.713 56.731 245.638 56.7309 246.579 56.8438 247.467 56.4788 248.651 55.9917 248.464 54.7694 248.845 53.8518" stroke="#000000" stroke-width="1.50284" stroke-linecap="round" stroke-linejoin="round" fill="none" transform="matrix(1.00331 0 0 1 860 192)"/><path d="M49.218 46.4628C49.841 46.9982 50.5926 47.0069 51.3469 46.9612 55.7283 46.6959 60.1137 46.8621 64.4969 46.8479 73.8479 46.8174 83.199 46.8264 92.5499 46.8498 94.2199 46.854 95.8932 46.9626 97.5584 47.101 99.2337 47.2403 99.9386 48.0639 99.9386 49.719 99.9391 64.4134 99.9394 79.1079 99.9363 93.8023 99.9362 94.178 99.9279 94.5584 99.8712 94.9287 99.5554 96.9883 98.7501 97.6823 96.6827 97.6837 91.9655 97.6867 87.2483 97.6846 82.531 97.6846 78.0642 97.6846 73.5952 97.5955 69.1312 97.7073 63.5782 97.8463 58.0254 97.7303 52.4751 97.8506 51.4471 97.8729 50.3659 97.7431 49.3345 98.164 48.6845 98.4293 48.0546 97.8837 47.3387 97.9003 43.9591 97.9784 40.5767 97.9381 37.1953 97.9338 35.6002 97.9318 34.9423 97.2747 34.9421 95.6809 34.9403 80.235 34.9401 64.7891 34.9423 49.3433 34.9426 47.4819 35.5917 46.8395 37.4458 46.8389 40.7437 46.8377 44.0416 46.8274 47.3394 46.8483 47.9666 46.8523 48.5457 46.7622 49.0928 46.4628" stroke="#000000" stroke-width="1.75331" stroke-linecap="round" stroke-linejoin="round" fill="none" transform="matrix(1.00331 0 0 1 860 192)"/><path d="M72.0111 34.4401C72.485 35.6238 72.2159 36.8606 72.2507 38.0723 72.3023 39.8673 72.8763 40.5541 74.6416 40.6957 75.5989 40.7725 76.5613 40.8201 77.5215 40.8216 84.2008 40.8321 90.8801 40.828 97.5594 40.8267 99.9397 40.8263 100.69 40.0733 100.69 37.6963 100.69 32.1441 100.649 26.5915 100.707 21.0399 100.739 18.0659 100.86 18.0166 97.6846 18.0264 89.9618 18.0501 82.2388 18.0337 74.5158 18.0344 72.8451 18.0345 72.3169 18.6129 72.2503 20.2879 72.1589 22.5838 72.1762 24.8889 72.1274 27.1788 72.0871 29.0676 72.1443 31.0183 72.2559 32.9376 72.2832 33.4077 72.3389 33.9001 72.0111 34.3149" stroke="#000000" stroke-width="1.75331" stroke-linecap="round" stroke-linejoin="round" fill="none" transform="matrix(1.00331 0 0 1 860 192)"/><path d="M49.0928 98.4361C49.0928 125.571 49.0928 152.705 49.0928 179.84" stroke="#000000" stroke-width="2.25426" stroke-linecap="round" stroke-linejoin="round" fill="none" transform="matrix(1.00331 0 0 1 860 192)"/><path d="M247.092 128.869C245.13 126.823 243.158 124.787 241.209 122.729 239.433 120.854 237.303 120.061 234.693 120.074 221.627 120.135 208.561 120.109 195.495 120.091 194.181 120.089 193.089 120.441 192.102 121.343 189.61 123.619 187.318 126.082 185.109 128.626 184.443 129.393 184.24 130.37 184.226 131.373 184.213 132.25 184.23 133.127 184.222 134.003 184.183 138.428 184.14 142.853 184.098 147.278" stroke="#000000" stroke-width="1.50284" stroke-linecap="round" stroke-linejoin="round" fill="none" transform="matrix(1.00331 0 0 1 860 192)"/><path d="M218.601 72.8878C217.934 72.9615 217.74 72.3523 217.426 71.9982 214.876 69.1238 212.068 66.6389 208.399 65.236 202.142 62.8438 196.635 64.1948 191.888 68.6571 188.256 72.0718 186.878 76.5037 187.392 81.3999 187.817 85.4472 189.853 88.7177 193.119 91.1672 196.31 93.5601 199.962 94.5006 203.883 94.1513 208.036 93.7814 211.695 92.1452 214.783 89.2963 216.109 88.0739 217.46 86.8794 218.85 85.6257 219.829 86.6681 221.015 88.0295 222.304 89.2845 225.953 92.8367 230.35 94.7512 235.442 94.3831 241.703 93.9305 247.547 90.8408 249.621 83.2549 251.263 77.2537 249.557 71.2997 243.707 67.1317 240.792 65.0546 237.575 63.8061 233.942 63.876 229.629 63.9589 226.05 65.8199 222.935 68.6452 221.517 69.9317 220.261 71.3958 218.909 72.7574 218.337 73.3327 218.882 73.9351 218.789 74.5158" stroke="#000000" stroke-width="1.75331" stroke-linecap="round" stroke-linejoin="round" fill="none" transform="matrix(1.00331 0 0 1 860 192)"/><path d="M320.731 53.8518C319.98 53.8935 319.228 53.9715 318.477 53.9718 295.934 53.9782 273.392 53.978 250.849 53.9718 250.223 53.9716 249.597 53.8935 248.971 53.8518" stroke="#000000" stroke-width="1.50284" stroke-linecap="round" stroke-linejoin="round" fill="none" transform="matrix(1.00331 0 0 1 860 192)"/><path d="M325.49 200.88C323.114 200.673 320.731 200.728 318.352 200.763 300.443 201.026 282.534 200.807 264.625 200.879 262.872 200.886 262.872 200.882 262.872 202.633 262.872 205.096 262.87 207.559 262.874 210.022 262.874 210.484 262.809 210.954 262.996 211.373 264.193 211.857 265.42 211.438 266.629 211.527 266.965 211.552 267.474 211.342 267.38 212.026" stroke="#000000" stroke-width="1.25237" stroke-linecap="round" stroke-linejoin="round" fill="none" transform="matrix(1.00331 0 0 1 860 192)"/><path d="M152.914 50.2199C152.551 51.3471 152.921 52.4741 152.92 53.6013 152.909 61.6165 152.914 69.6316 152.914 77.6468 152.914 79.4776 152.374 80.0157 150.535 80.0262 143.187 80.0681 135.84 80.1048 128.493 80.1562 127.199 80.1652 125.905 80.235 124.611 80.2767" stroke="#000000" stroke-width="1.50284" stroke-linecap="round" stroke-linejoin="round" fill="none" transform="matrix(1.00331 0 0 1 860 192)"/><path d="M316.849 201.13C316.57 202.333 316.751 203.552 316.733 204.762 316.7 206.975 316.724 209.189 316.724 211.335 316.111 211.6 315.598 211.522 315.096 211.522 299.65 211.525 284.204 211.524 268.758 211.527 268.341 211.528 267.923 211.567 267.506 211.587" stroke="#000000" stroke-width="1.50284" stroke-linecap="round" stroke-linejoin="round" fill="none" transform="matrix(1.00331 0 0 1 860 192)"/><path d="M222.921 79.4001C224.66 82.8418 226.879 85.8171 230.559 87.4184 236.842 90.1522 244.155 86.051 243.942 79.1502 243.797 74.4623 239.737 70.65 235.194 70.3919 229.442 70.065 225.73 73.0807 223.184 77.9036 222.967 78.3145 222.921 78.8156 222.796 79.2748" stroke="#000000" stroke-width="1.50284" stroke-linecap="round" stroke-linejoin="round" fill="none" transform="matrix(1.00331 0 0 1 860 192)"/><path d="M56.9827 183.096C59.2459 182.479 61.5624 182.595 63.8707 182.595 75.1838 182.596 86.4969 182.62 97.8098 182.577 100.461 182.567 101.78 184.003 101.749 186.478 101.728 188.228 101.683 189.984 101.691 191.737 101.698 193.449 101.692 195.161 101.692 196.872 101.692 198.625 101.692 200.379 101.692 202.132 101.692 203.844 101.692 205.555 101.692 207.267 101.692 209.771 101.699 212.276 101.69 214.781 101.684 216.326 101.08 216.911 99.5676 217.185 98.6669 217.348 97.8099 217.155 96.9332 217.157 92.5082 217.165 88.0832 217.16 83.6581 217.16 80.402 217.16 77.1426 217.253 73.8904 217.139 68.9634 216.966 64.0321 217.213 59.1138 216.99 56.1593 216.856 56.483 217.401 56.4821 214.405 56.4807 209.73 56.3799 205.051 56.5085 200.379 56.6568 194.993 56.5234 189.608 56.6159 184.223 56.66 181.659 55.7077 181.007 54.3601 180.448 54.0052 180.301 53.6842 180.388 53.3504 180.344 51.9781 180.164 50.5375 180.73 49.218 179.965 47.1688 180.724 45.0312 180.1 42.9602 180.372 41.8689 180.515 40.8672 182.038 40.8279 183.221 40.8224 183.388 40.8272 183.555 40.8272 183.722 40.8272 194.2 40.8541 204.679 40.8051 215.157 40.7949 217.328 41.9641 218 43.7078 218.16 43.9148 218.179 44.1265 218.146 44.3336 218.165 45.7921 218.295 47.2531 218.186 48.7254 218.324 50.0937 218.452 51.551 218.11 52.9747 218.171 54.3661 218.232 55.5553 217.861 56.4818 216.785" stroke="#000000" stroke-width="1.75331" stroke-linecap="round" stroke-linejoin="round" fill="none" transform="matrix(1.00331 0 0 1 860 192)"/><path d="M172.701 199.627C172.858 199.298 173.093 199.028 173.153 198.627 174.074 192.479 172.293 186.601 166.036 183.656 158.969 180.33 150.532 183.877 148.157 191.738 147.447 194.092 147.253 196.496 147.937 198.867 148.301 200.129 148.777 201.368 149.169 202.629 149.402 203.38 150.206 203.661 150.693 204.233 152.507 206.369 154.754 207.933 157.55 208.509 161.275 209.275 164.742 208.66 167.958 206.539 169.092 205.791 170.226 204.861 170.95 203.916 171.792 202.814 172.857 201.439 172.701 199.753" stroke="#000000" stroke-width="1.50284" stroke-linecap="round" stroke-linejoin="round" fill="none" transform="matrix(1.00331 0 0 1 860 192)"/><path d="M347.344 127.992C347.323 127.241 347.299 126.489 347.282 125.738 347.242 124.026 346.717 123.49 345.027 123.485 342.272 123.478 339.517 123.476 336.762 123.487 335.718 123.491 334.689 123.262 333.627 123.463 332.436 123.689 332.028 124.01 331.879 125.237 331.666 126.99 331.799 128.746 331.893 130.496 331.948 131.512 332.651 132.109 333.756 132.115 337.763 132.139 341.771 132.136 345.779 132.116 346.717 132.111 347.218 131.538 347.275 130.496 347.309 129.872 347.3 129.244 347.275 128.618 347.259 128.231 347.39 128.059 347.782 128.117" stroke="#000000" stroke-width="1.50284" stroke-linecap="round" stroke-linejoin="round" fill="none" transform="matrix(1.00331 0 0 1 860 192)"/><path d="M322.986 105.575C323.262 106.987 323.127 108.416 323.097 109.832 322.834 122.105 323.065 134.379 322.991 146.652 322.99 146.861 323.069 147.07 323.111 147.278" stroke="#000000" stroke-width="1.50284" stroke-linecap="round" stroke-linejoin="round" fill="none" transform="matrix(1.00331 0 0 1 860 192)"/><path d="M149.282 203.259C149.199 203.426 149.051 203.59 149.041 203.761 148.884 206.527 148.6 209.302 149.408 212.026 149.855 213.534 151.15 213.86 152.413 213.875 157.84 213.943 163.27 214.017 168.692 213.847 170.788 213.782 171.444 213.031 171.663 210.77 171.843 208.909 171.688 207.016 171.708 205.138 171.713 204.688 171.535 204.385 171.199 204.136" stroke="#000000" stroke-width="1.50284" stroke-linecap="round" stroke-linejoin="round" fill="none" transform="matrix(1.00331 0 0 1 860 192)"/><path d="M107.203 226.428C106.997 230.124 110.056 232.784 112.836 233.203 116.883 233.812 120.094 231.084 120.797 227.82 121.576 224.2 118.762 219.52 114.093 219.343 110.762 219.216 106.971 222.068 107.197 226.053 107.201 226.133 107.119 226.219 107.077 226.303" stroke="#000000" stroke-width="1.75331" stroke-linecap="round" stroke-linejoin="round" fill="none" transform="matrix(1.00331 0 0 1 860 192)"/><path d="M142.018 203.76C142.294 204.229 142.356 204.68 142.311 205.266 142.189 206.885 142.272 208.519 142.268 210.147 142.262 212.619 141.36 213.712 138.887 213.753 133.754 213.839 128.616 213.856 123.484 213.736 121.766 213.696 120.766 212.991 120.499 211.021 120.269 209.323 120.247 207.603 120.466 205.888 120.524 205.439 120.649 205.065 120.979 204.762" stroke="#000000" stroke-width="1.50284" stroke-linecap="round" stroke-linejoin="round" fill="none" transform="matrix(1.00331 0 0 1 860 192)"/><path d="M116.595 30.3073C120.086 30.6884 123.117 27.4244 123.215 24.0449 123.306 20.9579 121.083 18.1013 118.217 17.5657 114.35 16.8428 111.781 18.9128 110.728 22.2979 109.516 26.1935 112.52 30.3073 116.47 30.3073" stroke="#000000" stroke-width="1.75331" stroke-linecap="round" stroke-linejoin="round" fill="none" transform="matrix(1.00331 0 0 1 860 192)"/><path d="M92.6752 29.0549C92.6752 25.5506 89.6205 22.9995 86.0352 23.2606 83.1135 23.4734 81.1411 24.897 80.3175 27.5647 78.8736 32.242 82.5974 35.4104 86.161 35.6014 88.7377 35.7395 91.9125 33.8174 92.5417 31.0568 92.6815 30.4435 92.7169 29.8063 92.8004 29.1802" stroke="#000000" stroke-width="1.75331" stroke-linecap="round" stroke-linejoin="round" fill="none" transform="matrix(1.00331 0 0 1 860 192)"/><path d="M233.066 225.677C233.066 223.088 233.043 220.5 233.078 217.912 233.09 216.987 232.815 216.627 231.813 216.637 226.971 216.687 222.128 216.687 217.286 216.637 216.284 216.627 216.004 216.987 216.021 217.912 216.06 219.999 216.041 222.087 216.028 224.174 216.025 224.633 215.95 225.092 215.908 225.551" stroke="#000000" stroke-width="1.75331" stroke-linecap="round" stroke-linejoin="round" fill="none" transform="matrix(1.00331 0 0 1 860 192)"/><path d="M306.83 178.462C311.217 178.567 314.209 174.195 312.311 170.085 311.223 167.729 309.291 166.449 306.331 166.709 303.731 166.937 301.694 169.002 301.319 171.574 300.771 175.329 303.259 178.316 306.705 178.462" stroke="#000000" stroke-width="1.50284" stroke-linecap="round" stroke-linejoin="round" fill="none" transform="matrix(1.00331 0 0 1 860 192)"/><path d="M141.017 17.1574C140.548 16.9039 140.067 16.766 139.514 16.7706 136.633 16.7945 133.753 16.7947 130.872 16.774 129.982 16.7676 129.535 16.979 129.46 18.0317 129.286 20.4982 129.412 22.9604 129.39 25.4232 129.382 26.2107 129.836 26.7232 130.748 26.5533 130.869 26.5307 130.998 26.5502 131.123 26.5502 137.719 26.5502 144.314 26.5502 150.91 26.5502 153.999 26.5502 157.089 26.552 160.178 26.5494 161.691 26.5481 163.208 26.6081 164.688 26.1805 164.842 26.1359 165.056 26.1126 165.181 26.1845 165.988 26.6459 166.86 26.4242 167.692 26.4077 170.906 26.3436 174.136 26.2571 177.334 26.292 180.542 26.327 183.768 26.4237 186.977 26.3695 189.028 26.3348 191.068 26.4982 193.115 26.4378 195.117 26.3787 197.129 26.5242 199.124 26.3921 200.596 26.2946 202.047 26.3631 203.51 26.4142 204.928 26.4638 206.349 26.4397 207.768 26.4212 209.527 26.3983 211.337 26.0506 213.02 26.1603 216.327 26.3758 219.63 26.0716 222.921 26.3652 223.563 26.4224 224.201 26.5612 224.804 26.1812 224.942 26.094 225.171 26.0068 225.295 26.062 226.857 26.7576 228.47 26.2971 230.06 26.2985 234.318 26.3021 238.576 26.2997 242.834 26.2997 248.511 26.2997 254.189 26.2997 259.866 26.2997 263.874 26.2997 267.881 26.2997 271.889 26.2997 275.896 26.2997 279.904 26.2997 283.912 26.2997 287.919 26.2997 291.927 26.2997 295.934 26.2997 299.942 26.2997 303.95 26.2997 307.957 26.2997 311.881 26.2997 315.805 26.2997 319.729 26.2997 323.528 26.2997 327.327 26.3022 331.126 26.2985 332.627 26.297 332.628 26.2906 332.628 24.7969 332.629 22.7096 332.64 20.6222 332.624 18.5351 332.615 17.2703 332.14 16.814 330.875 16.7823 330.709 16.7781 330.541 16.7817 330.374 16.7817 324.113 16.7817 317.851 16.7817 311.589 16.7817 307.456 16.7817 303.323 16.7817 299.191 16.7817 295.183 16.7817 291.175 16.7817 287.168 16.7817 283.16 16.7817 279.153 16.7817 275.145 16.7817 271.138 16.7817 267.13 16.7817 263.122 16.7817 259.031 16.7817 254.94 16.7817 250.849 16.7817 246.842 16.7817 242.834 16.7817 238.826 16.7817 234.819 16.7817 230.811 16.7817 226.804 16.7817 222.88 16.7817 218.956 16.7817 215.031 16.7817 210.94 16.7817 206.849 16.7817 202.758 16.7817 198.834 16.7817 194.91 16.7817 190.986 16.7817 186.978 16.7817 182.966 16.6674 178.965 16.8297 176.95 16.9114 174.958 16.6903 172.951 16.7653 170.95 16.8401 168.932 16.6426 166.944 16.8205 164.924 17.0014 162.935 16.6903 160.929 16.7653 158.928 16.8401 156.922 16.7817 154.918 16.7817 150.868 16.7817 146.819 16.7889 142.77 16.7735 142.205 16.7713 141.667 16.8345 141.142 17.0322" stroke="#000000" stroke-width="1.75331" stroke-linecap="round" stroke-linejoin="round" fill="none" transform="matrix(1.00331 0 0 1 860 192)"/><path d="M154.542 175.582C154.676 174.5 154.642 173.406 154.714 172.329 154.85 170.281 154.44 168.236 154.884 166.182 155.198 164.731 154.335 163.913 152.789 163.94 150.618 163.979 148.446 163.829 146.275 164.048 145.232 164.153 144.69 164.494 144.616 165.686 144.449 168.361 144.541 171.032 144.543 173.703 144.544 175.164 145.239 175.665 147.028 175.701 148.53 175.731 150.034 175.699 151.536 175.709 153.148 175.72 154.739 175.65 156.313 176.291 157.34 176.708 158.558 176.701 159.672 176.551 160.664 176.418 161.003 176.181 160.937 174.454 160.898 173.434 160.344 173.167 159.426 173.192 157.966 173.231 156.504 173.202 155.043 173.202" stroke="#000000" stroke-width="1.50284" stroke-linecap="round" stroke-linejoin="round" fill="none" transform="matrix(1.00331 0 0 1 860 192)"/><path d="M177.586 226.178C177.198 225.943 176.776 225.92 176.333 225.921 173.453 225.932 170.572 225.921 167.692 225.93 166.445 225.934 166.332 226.07 166.312 227.305 166.278 229.476 166.215 231.646 166.195 233.817 166.181 235.259 166.389 235.489 167.817 235.436 171.031 235.315 174.263 235.294 177.459 235.324 180.707 235.353 183.976 235.414 187.229 235.409 192.196 235.4 197.164 235.462 202.133 235.383 205.59 235.329 209.062 235.406 212.527 235.437 216.618 235.473 220.709 235.445 224.8 235.445 229.058 235.445 233.316 235.445 237.574 235.445 241.749 235.445 245.923 235.445 250.098 235.445 254.022 235.445 257.946 235.445 261.87 235.445 265.878 235.445 269.885 235.445 273.893 235.445 277.984 235.445 282.075 235.445 286.166 235.445 293.68 235.445 301.194 235.445 308.709 235.445 312.215 235.445 315.722 235.445 319.228 235.445 322.61 235.445 325.991 235.447 329.373 235.444 330.693 235.443 330.872 235.263 330.874 233.942 330.878 231.771 330.86 229.601 330.883 227.43 330.892 226.542 330.64 226.061 329.624 226.034 326.739 225.956 323.857 225.698 320.98 226.169 320.387 226.267 319.852 225.889 319.228 225.904 316.891 225.962 314.553 225.927 312.215 225.927 308.458 225.927 304.701 225.927 300.944 225.927 297.103 225.927 293.263 225.927 289.422 225.927 285.331 225.927 281.24 225.927 277.149 225.927 273.141 225.927 269.134 225.927 265.126 225.927 261.202 225.927 257.278 225.927 253.354 225.927 249.179 225.927 245.005 225.927 240.83 225.927 236.572 225.927 232.314 225.927 228.056 225.927 224.633 225.927 221.21 225.927 217.787 225.927 213.153 225.927 208.519 225.927 203.885 225.927 199.753 225.927 195.62 225.927 191.487 225.927 187.354 225.927 183.221 225.923 179.089 225.932 178.621 225.933 178.115 225.79 177.711 226.178" stroke="#000000" stroke-width="1.75331" stroke-linecap="round" stroke-linejoin="round" fill="none" transform="matrix(1.00331 0 0 1 860 192)"/><path d="M78.5234 151.912C76.5614 151.954 74.5995 152.015 72.6372 152.029 71.7577 152.035 71.3714 152.414 71.2414 153.287 71.0358 154.668 71.0778 156.054 71.1612 157.421 71.3318 160.22 71.2098 163.017 71.2555 165.813 71.2841 167.564 71.767 168.066 73.514 168.067 75.1838 168.069 76.8536 168.068 78.5234 168.068" stroke="#000000" stroke-width="1.50284" stroke-linecap="round" stroke-linejoin="round" fill="none" transform="matrix(1.00331 0 0 1 860 192)"/><path d="M71.8859 27.1764C69.0088 27.4477 66.1242 27.3004 63.2447 27.2821 60.4519 27.2644 60.2638 27.3896 60.3597 30.1822 60.3883 31.0161 60.3568 31.852 60.3658 32.6868 60.3791 33.9086 60.7704 34.3083 61.9922 34.3121 64.7474 34.3208 67.5026 34.3082 70.2578 34.3205 70.8006 34.323 71.3432 34.3983 71.8859 34.4401" stroke="#000000" stroke-width="1.75331" stroke-linecap="round" stroke-linejoin="round" fill="none" transform="matrix(1.00331 0 0 1 860 192)"/><path d="M232.189 138.637C232.439 138.554 232.686 138.456 232.941 138.389 234.387 138.011 234.583 137.736 234.834 136.26 235.002 135.274 234.912 134.338 234.708 133.374 234.525 132.505 234.077 132.114 233.191 132.119 230.102 132.135 227.012 132.129 223.923 132.122 223.044 132.12 222.438 132.503 222.31 133.379 222.164 134.372 221.991 135.393 222.076 136.38 222.213 137.972 223.626 138.726 225.304 138.54 227.549 138.292 229.818 138.15 232.064 138.637" stroke="#000000" stroke-width="1.50284" stroke-linecap="round" stroke-linejoin="round" fill="none" transform="matrix(1.00331 0 0 1 860 192)"/><path d="M102.193 188.857C104.556 188.895 106.464 189.951 107.672 191.882 110.292 196.07 110.441 200.508 108.165 204.867 106.929 207.234 104.934 208.861 102.068 209.02" stroke="#000000" stroke-width="1.50284" stroke-linecap="round" stroke-linejoin="round" fill="none" transform="matrix(1.00331 0 0 1 860 192)"/><path d="M143.396 199.502C141.834 198.96 140.22 199.286 138.637 199.291 137.684 199.295 136.717 199.371 135.757 199.372 130.455 199.382 125.153 199.375 119.852 199.38 119.391 199.381 118.918 199.291 118.474 199.502" stroke="#000000" stroke-width="1.75331" stroke-linecap="round" stroke-linejoin="round" fill="none" transform="matrix(1.00331 0 0 1 860 192)"/><path d="M172.576 199.627C171.407 199.29 170.238 199.629 169.07 199.628 165.229 199.626 161.388 199.612 157.548 199.633 154.918 199.647 152.288 199.713 149.658 199.75 149.3 199.755 148.946 199.744 148.656 200.003" stroke="#000000" stroke-width="1.75331" stroke-linecap="round" stroke-linejoin="round" fill="none" transform="matrix(1.00331 0 0 1 860 192)"/><path d="M262.308 73.6392C262.512 76.224 262.159 78.8254 262.506 81.4026 262.756 83.2619 264.031 84.0536 266.379 83.9086 268.04 83.806 269.258 82.5625 269.251 80.903 269.245 79.3165 269.156 77.7304 269.142 76.1439 269.135 75.3929 269.217 74.6411 269.259 73.8897" stroke="#000000" stroke-width="1.75331" stroke-linecap="round" stroke-linejoin="round" fill="none" transform="matrix(1.00331 0 0 1 860 192)"/><path d="M94.9294 148.906C94.5417 148.503 94.7164 147.996 94.6792 147.529 94.5945 146.467 94.1214 145.979 93.0507 145.903 89.1295 145.624 85.2024 145.799 81.2786 145.797 79.6012 145.796 79.2341 146.293 79.0191 148.029 78.8021 149.781 78.9079 151.536 78.9031 153.29 78.8911 157.715 78.8991 162.14 78.8991 166.565 78.8991 168.652 78.888 170.739 78.9028 172.827 78.9137 174.367 79.5027 175.072 81.0291 175.195 84.9896 175.515 88.96 175.286 92.9258 175.306 93.8438 175.311 94.5299 174.896 94.5923 173.705 94.6558 172.492 94.6759 171.283 94.6772 170.071 94.6817 165.73 94.679 161.388 94.679 157.047 94.679 154.793 94.6756 152.538 94.682 150.284 94.6832 149.865 94.6035 149.433 94.8042 149.032" stroke="#000000" stroke-width="1.75331" stroke-linecap="round" stroke-linejoin="round" fill="none" transform="matrix(1.00331 0 0 1 860 192)"/><path d="M64.6221 98.1856C64.6221 102.15 66.5881 105.257 70.0167 105.9 75.2385 106.88 79.4814 103.374 79.4005 98.6865 79.3969 98.4779 79.4001 98.2691 79.4001 98.0603" stroke="#000000" stroke-width="1.75331" stroke-linecap="round" stroke-linejoin="round" fill="none" transform="matrix(1.00331 0 0 1 860 192)"/><path d="M82.1553 217.536C82.4021 222.273 85.9589 224.519 89.6769 225.131 93.1117 225.697 96.7322 223.472 98.0452 219.66 98.277 218.987 98.3108 218.246 98.4361 217.536" stroke="#000000" stroke-width="1.50284" stroke-linecap="round" stroke-linejoin="round" fill="none" transform="matrix(1.00331 0 0 1 860 192)"/><path d="M187.73 200.254C187.514 201.626 187.613 203.008 187.609 204.386 187.597 208.77 187.615 213.153 187.598 217.536 187.594 218.789 187.34 220.041 187.605 221.293" stroke="#000000" stroke-width="1.25237" stroke-linecap="round" stroke-linejoin="round" fill="none" transform="matrix(1.00331 0 0 1 860 192)"/><path d="M141.768 203.635C141.043 203.815 140.625 204.401 140.144 204.891 138.222 206.847 135.944 208.289 133.246 208.662 129.446 209.186 125.816 208.576 122.73 206.017 121.076 204.645 119.649 203.095 118.725 201.13 115.661 194.619 117.373 186.471 124.605 182.836 126.473 181.897 128.579 181.286 130.493 181.347 133.554 181.445 136.673 182.08 139.271 184.088 141.649 185.926 143.334 188.292 144.085 191.128 144.706 193.468 144.911 195.98 144.122 198.366 143.525 200.173 142.801 201.949 141.893 203.635" stroke="#000000" stroke-width="1.50284" stroke-linecap="round" stroke-linejoin="round" fill="none" transform="matrix(1.00331 0 0 1 860 192)"/><path d="M170.197 105.95C170.381 104.036 169.855 103.734 167.942 103.7 166.69 103.678 165.437 103.727 164.186 103.685 163.352 103.657 162.939 103.902 162.895 104.821 162.876 105.229 162.792 105.663 162.819 106.075 162.912 107.489 163.505 108.043 164.937 108.075 166.022 108.098 167.108 108.085 168.193 108.078 169.752 108.068 170.181 107.634 170.197 106.076" stroke="#000000" stroke-width="1.50284" stroke-linecap="round" stroke-linejoin="round" fill="none" transform="matrix(1.00331 0 0 1 860 192)"/><path d="M326.367 157.924C326.367 156.379 326.379 154.834 326.363 153.29 326.351 152.082 325.926 151.563 324.739 151.551 320.898 151.512 317.054 151.45 313.219 151.598 312.285 151.635 311.381 151.516 310.462 151.521 304.117 151.551 297.771 151.536 291.426 151.536 287.585 151.536 283.745 151.536 279.904 151.536 276.147 151.536 272.39 151.536 268.633 151.536 264.709 151.536 260.785 151.536 256.861 151.536 252.853 151.536 248.845 151.536 244.838 151.536 240.329 151.536 235.821 151.536 231.312 151.536 226.637 151.536 221.961 151.536 217.286 151.536 212.694 151.536 208.102 151.536 203.51 151.536 199.419 151.536 195.328 151.536 191.236 151.536 187.813 151.536 184.39 151.532 180.967 151.539 179.288 151.542 178.928 151.916 178.7 153.538 178.489 155.043 178.656 156.547 178.588 158.049" stroke="#000000" stroke-width="1.75331" stroke-linecap="round" stroke-linejoin="round" fill="none" transform="matrix(1.00331 0 0 1 860 192)"/><path d="M326.242 186.477C326.446 187.939 326.155 189.4 326.244 190.861 326.298 191.759 325.959 192.18 324.991 192.259 322.443 192.468 319.895 192.359 317.35 192.341 315.598 192.329 313.793 192.128 312.096 192.225 309.04 192.4 305.995 192.282 302.947 192.345 299.108 192.424 295.266 192.364 291.426 192.364 287.585 192.364 283.745 192.364 279.904 192.364 276.063 192.364 272.223 192.364 268.382 192.364 264.375 192.364 260.367 192.364 256.36 192.364 252.269 192.364 248.177 192.364 244.086 192.364 239.745 192.364 235.403 192.414 231.062 192.351 225.927 192.276 220.792 192.352 215.657 192.304 211.573 192.266 207.477 192.489 203.384 192.489 198.876 192.489 194.366 192.414 189.859 192.515 186.811 192.583 183.764 192.604 180.717 192.61 178.719 192.614 178.503 192.335 178.318 190.362 178.2 189.106 178.245 187.855 178.212 186.603" stroke="#000000" stroke-width="1.75331" stroke-linecap="round" stroke-linejoin="round" fill="none" transform="matrix(1.00331 0 0 1 860 192)"/><path d="M312.215 122.857C312.681 124.348 312.499 125.86 312.315 127.363 312.297 127.512 312.233 127.695 312.216 127.867 312.025 129.781 311.925 129.87 309.961 129.87 309.251 129.87 308.542 129.873 307.832 129.87 306.51 129.864 305.909 129.348 305.976 127.993 306.062 126.281 306.009 124.566 306.18 122.842 306.309 121.542 306.062 120.02 305.946 118.6 305.828 117.157 306.264 116.741 307.708 116.832 308.956 116.91 310.201 116.62 311.468 116.819 312.155 116.927 312.463 117.097 312.484 117.847 312.528 119.486 312.917 121.136 312.215 122.732" stroke="#000000" stroke-width="1.50284" stroke-linecap="round" stroke-linejoin="round" fill="none" transform="matrix(1.00331 0 0 1 860 192)"/><path d="M216.973 98.5613C216.952 100.315 216.899 102.068 216.92 103.821 216.936 105.232 217.948 106.155 219.415 106.201 220.811 106.244 222.125 105.161 222.155 103.821 222.194 102.069 222.128 100.315 222.107 98.5613" stroke="#000000" stroke-width="2.25426" stroke-linecap="round" stroke-linejoin="round" fill="none" transform="matrix(1.00331 0 0 1 860 192)"/><path d="M143.02 153.54C142.979 153.958 142.887 154.377 142.904 154.792 142.969 156.425 142.42 156.748 141.016 156.786 138.179 156.863 135.339 156.895 132.5 156.915 131.124 156.925 130.9 156.594 130.595 155.174 130.374 154.143 130.749 153.143 130.595 152.167 130.24 149.917 131.039 147.641 130.327 145.374 130.191 144.941 130.476 144.045 130.664 143.408 130.833 142.835 131.469 142.622 132.125 142.637 133.293 142.664 134.463 142.66 135.631 142.641 137.468 142.612 139.305 142.532 141.142 142.529 142.513 142.527 142.881 142.912 142.89 144.273 142.907 146.861 142.892 149.449 142.898 152.037 142.899 152.508 142.796 153.004 143.146 153.415" stroke="#000000" stroke-width="1.50284" stroke-linecap="round" stroke-linejoin="round" fill="none" transform="matrix(1.00331 0 0 1 860 192)"/><path d="M224.925 138.762C224.967 140.182 225.012 141.601 225.049 143.02 225.066 143.685 225.246 144.1 226.051 144.168 227.684 144.307 229.307 144.34 230.937 144.151 231.701 144.063 232.059 143.671 232.07 142.895 232.089 141.517 232.147 140.14 232.189 138.762" stroke="#000000" stroke-width="1.75331" stroke-linecap="round" stroke-linejoin="round" fill="none" transform="matrix(1.00331 0 0 1 860 192)"/><path d="M95.0547 148.906C96.307 148.948 97.5608 148.966 98.8114 149.038 100.196 149.118 100.92 149.724 101.046 151.037 101.142 152.036 101.181 153.078 100.802 154.036 100.438 154.956 99.7336 155.432 98.6865 155.432 97.4764 155.432 96.258 155.29 95.0547 155.544" stroke="#000000" stroke-width="1.50284" stroke-linecap="round" stroke-linejoin="round" fill="none" transform="matrix(1.00331 0 0 1 860 192)"/><path d="M95.0547 160.428C96.1401 160.428 97.2254 160.428 98.3108 160.428 99.6699 160.43 100.298 160.882 100.687 162.183 100.969 163.128 100.906 164.124 100.774 165.056 100.635 166.04 99.8728 166.577 98.8118 166.568 97.5595 166.556 96.307 166.565 95.0547 166.565" stroke="#000000" stroke-width="1.50284" stroke-linecap="round" stroke-linejoin="round" fill="none" transform="matrix(1.00331 0 0 1 860 192)"/><path d="M155.043 169.821C156.665 170.104 158.301 169.932 159.927 169.92 160.706 169.914 161.19 168.947 161.173 167.692 161.162 166.863 161.033 166.143 159.929 166.047 158.295 165.906 156.671 165.858 155.043 166.064" stroke="#000000" stroke-width="1.50284" stroke-linecap="round" stroke-linejoin="round" fill="none" transform="matrix(1.00331 0 0 1 860 192)"/><path d="M331.627 185.601C329.665 186.276 327.632 186.097 325.615 186.1 321.566 186.106 317.513 186.005 313.47 186.168 312.426 186.21 311.381 186.224 310.337 186.225 303.991 186.229 297.646 186.227 291.301 186.227 287.544 186.227 283.786 186.227 280.029 186.227 276.189 186.227 272.348 186.227 268.508 186.227 264.5 186.227 260.492 186.227 256.485 186.227 252.394 186.227 248.303 186.227 244.212 186.227 239.87 186.227 235.529 186.227 231.187 186.227 226.595 186.227 222.003 186.227 217.411 186.227 212.735 186.227 208.06 186.227 203.384 186.227 199.21 186.227 195.035 186.227 190.861 186.227 187.104 186.227 183.345 186.165 179.59 186.255 177.92 186.295 176.302 186.198 174.705 185.726" stroke="#000000" stroke-width="1.50284" stroke-linecap="round" stroke-linejoin="round" fill="none" transform="matrix(1.00331 0 0 1 860 192)"/><path d="M331.502 158.424C330.63 158.189 329.75 158.293 328.872 158.363 328.151 158.42 327.41 158.605 326.746 158.169 326.145 157.773 325.777 158.459 325.239 158.437 320.983 158.263 316.727 158.511 312.46 158.273 310.463 158.162 308.372 158.435 306.33 158.394 304.703 158.361 303.057 158.739 301.423 158.105 300.949 157.921 300.243 158.452 299.566 158.441 297.062 158.4 294.549 158.547 292.055 158.386 290.038 158.256 288.045 158.476 286.04 158.434 284.038 158.392 282.033 158.424 280.029 158.424 276.314 158.424 272.591 158.569 268.887 158.364 266.989 158.259 265.128 158.503 263.247 158.438 261.412 158.375 259.574 158.425 257.737 158.424 257.018 158.424 256.301 158.445 255.606 158.179 254.864 157.895 254.234 158.484 253.478 158.458 250.851 158.371 248.211 158.558 245.591 158.394 241.493 158.136 237.409 158.535 233.315 158.449 228.35 158.345 223.381 158.426 218.413 158.423 217.57 158.423 216.731 158.465 215.904 158.185 215.222 157.953 214.614 158.469 213.904 158.454 210.649 158.387 207.392 158.424 204.136 158.424 200.003 158.424 195.87 158.424 191.737 158.424 188.064 158.424 184.39 158.424 180.717 158.424 178.713 158.424 176.709 158.424 174.705 158.424" stroke="#000000" stroke-width="1.50284" stroke-linecap="round" stroke-linejoin="round" fill="none" transform="matrix(1.00331 0 0 1 860 192)"/><path d="M317.225 82.531C317.444 84.0271 318.4 84.9333 319.604 84.7853 320.824 84.6352 321.874 83.2772 321.733 82.0301 321.574 80.6226 320.491 79.6476 319.228 79.7758 318.076 79.8928 317.33 80.8417 317.162 82.4058" stroke="#000000" stroke-width="1.50284" stroke-linecap="round" stroke-linejoin="round" fill="none" transform="matrix(1.00331 0 0 1 860 192)"/><path d="M298.314 204.762C298.114 203.362 297.205 202.986 296.053 203.75 294.689 204.654 294.574 206.819 295.549 208.026 296.143 208.76 296.935 208.736 297.684 208.62 298.708 208.46 298.477 207.564 298.423 206.892 298.339 205.82 297.511 206.297 296.936 206.265" stroke="#000000" stroke-width="1.50284" stroke-linecap="round" stroke-linejoin="round" fill="none" transform="matrix(1.00331 0 0 1 860 192)"/><path d="M292.678 206.14C292.177 205.75 292.537 205.123 292.207 204.618 291.257 203.165 290.221 203.054 289.315 204.523 288.745 205.447 288.766 206.468 289.15 207.525 289.477 208.427 290.056 208.736 290.924 208.639 291.804 208.54 292.293 208.017 292.433 207.142 292.481 206.844 292.595 206.557 292.678 206.265" stroke="#000000" stroke-width="1.50284" stroke-linecap="round" stroke-linejoin="round" fill="none" transform="matrix(1.00331 0 0 1 860 192)"/><path d="M191.863 50.2199C191.253 49.036 190.25 48.8353 189.358 49.719 188.198 50.868 188.174 52.3575 189.368 53.3381 189.96 53.8237 190.639 54.241 191.488 53.8548 192.386 53.4465 191.813 52.6914 192.015 52.1271 191.32 51.6934 190.635 51.8996 189.984 51.848" stroke="#000000" stroke-width="1.25237" stroke-linecap="round" stroke-linejoin="round" fill="none" transform="matrix(1.00331 0 0 1 860 192)"/><path d="M199.753 102.819C200.504 102.861 201.255 102.907 202.007 102.944 203.056 102.994 204.464 101.716 204.363 100.693 204.288 99.9363 204.077 99.2032 203.14 98.9177 202.085 98.5963 201.059 98.6478 200.002 98.8033 199.374 98.8956 199.209 99.2691 199.254 99.8135 199.338 100.82 198.991 101.881 199.627 102.819 198.782 103.922 199.675 105.18 199.314 106.326" stroke="#000000" stroke-width="2.25426" stroke-linecap="round" stroke-linejoin="round" fill="none" transform="matrix(1.00331 0 0 1 860 192)"/><path d="M302.071 31.8101C301.627 31.5989 301.154 31.6897 300.693 31.6892 299.459 31.688 299.125 32.0926 299.177 33.3135 299.203 33.9465 299.43 34.2228 300.067 34.1943 300.88 34.158 301.721 34.2299 301.92 35.1968 302.057 35.8625 302.061 36.5861 301.2 36.9582 300.366 37.3191 299.619 37.431 298.94 36.6944" stroke="#000000" stroke-width="1.50284" stroke-linecap="round" stroke-linejoin="round" fill="none" transform="matrix(1.00331 0 0 1 860 192)"/><path d="M311.965 34.1896C312.507 34.1896 313.052 34.2211 313.592 34.1822 314.396 34.1243 314.877 34.5654 315.212 35.1963 315.477 35.6955 315.433 36.2519 315.084 36.6853 314.586 37.3056 313.867 37.5745 313.095 37.431 311.972 37.2223 311.222 36.1613 311.492 35.0733 311.649 34.4391 311.547 33.7671 311.748 33.1997 312.157 32.044 313.505 31.6817 314.97 32.1858" stroke="#000000" stroke-width="1.50284" stroke-linecap="round" stroke-linejoin="round" fill="none" transform="matrix(1.00331 0 0 1 860 192)"/><path d="M220.792 220.041C220.349 219.483 219.898 219.126 219.157 219.654 218.35 220.228 218.044 220.997 218.187 221.916 218.243 222.273 218.533 222.632 218.8 222.911 219.191 223.32 219.763 223.628 220.277 223.391 220.905 223.102 221.121 222.49 220.792 221.794 220.294 221.717 219.815 221.415 219.289 221.669" stroke="#000000" stroke-width="1.25237" stroke-linecap="round" stroke-linejoin="round" fill="none" transform="matrix(1.00331 0 0 1 860 192)"/><path d="M153.165 17.1574C152.888 19.0308 153.095 20.9148 153.045 22.7932 153.015 23.9196 153.039 25.0473 153.039 26.1745" stroke="#000000" stroke-width="1.75331" stroke-linecap="round" stroke-linejoin="round" fill="none" transform="matrix(1.00331 0 0 1 860 192)"/><path d="M183.472 69.7569C181.527 69.2707 179.547 69.596 177.585 69.5106 176.91 69.4813 176.683 69.882 176.705 70.5084 176.725 71.0921 176.709 71.6771 176.709 72.2616" stroke="#000000" stroke-width="1.50284" stroke-linecap="round" stroke-linejoin="round" fill="none" transform="matrix(1.00331 0 0 1 860 192)"/><path d="M299.191 226.303C299.441 227.38 299.387 228.486 299.288 229.556 299.113 231.439 299.262 233.317 299.191 235.195" stroke="#000000" stroke-width="1.50284" stroke-linecap="round" stroke-linejoin="round" fill="none" transform="matrix(1.00331 0 0 1 860 192)"/><path d="M189.358 17.1574C189.358 19.5787 189.365 22 189.352 24.4211 189.349 24.964 189.274 25.5065 189.233 26.0492" stroke="#000000" stroke-width="1.75331" stroke-linecap="round" stroke-linejoin="round" fill="none" transform="matrix(1.00331 0 0 1 860 192)"/><path d="M214.531 226.303C214.531 228.39 214.531 230.477 214.531 232.565 214.531 233.441 214.531 234.318 214.531 235.195" stroke="#000000" stroke-width="1.50284" stroke-linecap="round" stroke-linejoin="round" fill="none" transform="matrix(1.00331 0 0 1 860 192)"/><path d="M280.906 73.2635C280.687 76.2245 281.393 79.2242 280.446 82.1685 280.247 82.7873 280.572 83.5746 280.655 84.2843" stroke="#000000" stroke-width="2.00379" stroke-linecap="round" stroke-linejoin="round" fill="none" transform="matrix(1.00331 0 0 1 860 192)"/><path d="M141.017 17.2827C141.017 20.2466 141.017 23.2105 141.017 26.1745" stroke="#000000" stroke-width="1.75331" stroke-linecap="round" stroke-linejoin="round" fill="none" transform="matrix(1.00331 0 0 1 860 192)"/><path d="M207.768 79.0244C204.846 78.8555 201.923 78.8195 199.001 79.0244" stroke="#000000" stroke-width="2.75521" stroke-linecap="round" stroke-linejoin="round" fill="none" transform="matrix(1.00331 0 0 1 860 192)"/><path d="M237.198 17.1574C237.198 20.0796 237.198 23.0018 237.198 25.924" stroke="#000000" stroke-width="1.75331" stroke-linecap="round" stroke-linejoin="round" fill="none" transform="matrix(1.00331 0 0 1 860 192)"/><path d="M321.483 17.1574C321.469 20.08 321.565 23.0042 321.357 25.924" stroke="#000000" stroke-width="1.50284" stroke-linecap="round" stroke-linejoin="round" fill="none" transform="matrix(1.00331 0 0 1 860 192)"/><path d="M201.13 17.1574C201.13 20.0796 201.13 23.0018 201.13 25.924" stroke="#000000" stroke-width="1.75331" stroke-linecap="round" stroke-linejoin="round" fill="none" transform="matrix(1.00331 0 0 1 860 192)"/><path d="M297.562 17.1574C297.562 20.0796 297.562 23.0018 297.562 25.924" stroke="#000000" stroke-width="1.75331" stroke-linecap="round" stroke-linejoin="round" fill="none" transform="matrix(1.00331 0 0 1 860 192)"/><path d="M309.585 17.1574C309.585 20.0796 309.585 23.0018 309.585 25.924" stroke="#000000" stroke-width="1.75331" stroke-linecap="round" stroke-linejoin="round" fill="none" transform="matrix(1.00331 0 0 1 860 192)"/><path d="M165.062 17.2827C165.062 19.7874 165.065 22.2921 165.059 24.7969 165.058 25.2163 165.137 25.6477 164.937 26.0492" stroke="#000000" stroke-width="1.75331" stroke-linecap="round" stroke-linejoin="round" fill="none" transform="matrix(1.00331 0 0 1 860 192)"/><path d="M177.586 226.303C177.505 229.224 177.748 232.151 177.46 235.069" stroke="#000000" stroke-width="1.75331" stroke-linecap="round" stroke-linejoin="round" fill="none" transform="matrix(1.00331 0 0 1 860 192)"/><path d="M285.54 17.1574C285.54 20.0796 285.54 23.0018 285.54 25.924" stroke="#000000" stroke-width="1.75331" stroke-linecap="round" stroke-linejoin="round" fill="none" transform="matrix(1.00331 0 0 1 860 192)"/><path d="M273.517 17.1574C273.517 20.0796 273.517 23.0018 273.517 25.924" stroke="#000000" stroke-width="1.75331" stroke-linecap="round" stroke-linejoin="round" fill="none" transform="matrix(1.00331 0 0 1 860 192)"/><path d="M225.176 17.1574C225.176 20.0796 225.176 23.0018 225.176 25.924" stroke="#000000" stroke-width="1.75331" stroke-linecap="round" stroke-linejoin="round" fill="none" transform="matrix(1.00331 0 0 1 860 192)"/><path d="M320.731 226.303C320.999 228.26 320.799 230.227 320.852 232.189 320.878 233.148 320.856 234.109 320.856 235.069" stroke="#000000" stroke-width="1.75331" stroke-linecap="round" stroke-linejoin="round" fill="none" transform="matrix(1.00331 0 0 1 860 192)"/><path d="M310.337 226.303C310.337 229.225 310.337 232.147 310.337 235.069" stroke="#000000" stroke-width="1.75331" stroke-linecap="round" stroke-linejoin="round" fill="none" transform="matrix(1.00331 0 0 1 860 192)"/><path d="M287.794 226.303C287.614 228.763 287.958 231.232 287.682 233.693 287.631 234.142 287.752 234.61 287.794 235.069" stroke="#000000" stroke-width="1.75331" stroke-linecap="round" stroke-linejoin="round" fill="none" transform="matrix(1.00331 0 0 1 860 192)"/><path d="M275.521 226.303C275.521 229.225 275.521 232.147 275.521 235.069" stroke="#000000" stroke-width="1.75331" stroke-linecap="round" stroke-linejoin="round" fill="none" transform="matrix(1.00331 0 0 1 860 192)"/><path d="M249.221 17.1574C249.221 20.0796 249.221 23.0018 249.221 25.924" stroke="#000000" stroke-width="1.75331" stroke-linecap="round" stroke-linejoin="round" fill="none" transform="matrix(1.00331 0 0 1 860 192)"/><path d="M263.498 226.303C263.732 228.804 263.587 231.312 263.617 233.817 263.622 234.234 263.54 234.652 263.498 235.069" stroke="#000000" stroke-width="1.50284" stroke-linecap="round" stroke-linejoin="round" fill="none" transform="matrix(1.00331 0 0 1 860 192)"/><path d="M251.726 226.303C251.726 229.225 251.726 232.147 251.726 235.069" stroke="#000000" stroke-width="1.75331" stroke-linecap="round" stroke-linejoin="round" fill="none" transform="matrix(1.00331 0 0 1 860 192)"/><path d="M239.077 226.303C239.345 228.26 239.145 230.227 239.198 232.189 239.223 233.148 239.202 234.109 239.202 235.069" stroke="#000000" stroke-width="1.75331" stroke-linecap="round" stroke-linejoin="round" fill="none" transform="matrix(1.00331 0 0 1 860 192)"/><path d="M226.428 226.303C226.428 229.225 226.428 232.147 226.428 235.069" stroke="#000000" stroke-width="1.75331" stroke-linecap="round" stroke-linejoin="round" fill="none" transform="matrix(1.00331 0 0 1 860 192)"/><path d="M261.369 17.1574C261.637 19.1147 261.437 21.0818 261.49 23.0437 261.516 24.0031 261.494 24.9639 261.494 25.924" stroke="#000000" stroke-width="1.75331" stroke-linecap="round" stroke-linejoin="round" fill="none" transform="matrix(1.00331 0 0 1 860 192)"/><path d="M189.734 226.303C189.734 228.766 189.74 231.229 189.728 233.692 189.726 234.151 189.65 234.61 189.608 235.069" stroke="#000000" stroke-width="1.50284" stroke-linecap="round" stroke-linejoin="round" fill="none" transform="matrix(1.00331 0 0 1 860 192)"/><path d="M213.278 17.1574C213.01 19.1147 213.21 21.0818 213.157 23.0437 213.132 24.0031 213.153 24.9639 213.153 25.924" stroke="#000000" stroke-width="1.75331" stroke-linecap="round" stroke-linejoin="round" fill="none" transform="matrix(1.00331 0 0 1 860 192)"/><path d="M177.085 17.2827C177.085 20.1631 177.085 23.0436 177.085 25.924" stroke="#000000" stroke-width="1.75331" stroke-linecap="round" stroke-linejoin="round" fill="none" transform="matrix(1.00331 0 0 1 860 192)"/><path d="M112.087 113.089C109.248 112.912 106.409 112.866 103.571 113.089" stroke="#000000" stroke-width="1.25237" stroke-linecap="round" stroke-linejoin="round" fill="none" transform="matrix(1.00331 0 0 1 860 192)"/><path d="M284.162 203.259C284.162 204.72 284.169 206.181 284.159 207.642 284.155 208.332 284.352 208.751 285.165 208.654 285.911 208.566 286.667 208.561 287.418 208.519" stroke="#000000" stroke-width="1.50284" stroke-linecap="round" stroke-linejoin="round" fill="none" transform="matrix(1.00331 0 0 1 860 192)"/><path d="M274.268 75.7682C273.964 76.3585 273.877 76.9827 273.884 77.6469 273.907 79.7756 273.893 81.9048 273.893 84.0338" stroke="#000000" stroke-width="2.00379" stroke-linecap="round" stroke-linejoin="round" fill="none" transform="matrix(1.00331 0 0 1 860 192)"/><path d="M325.991 53.3508C325.898 52.681 326.258 52.1017 326.309 51.4323 325.831 50.8738 325.44 49.9527 324.366 50.4754 323.352 50.9685 323.032 52.0988 323.395 54.0316 324.905 53.7679 326.444 53.5329 327.995 53.7266" stroke="#000000" stroke-width="1.50284" stroke-linecap="round" stroke-linejoin="round" fill="none" transform="matrix(1.00331 0 0 1 860 192)"/><path d="M209.396 48.7171C209.396 50.346 209.396 51.9748 209.396 53.5496 210.598 53.8446 211.567 53.6747 212.527 53.7266" stroke="#000000" stroke-width="1.50284" stroke-linecap="round" stroke-linejoin="round" fill="none" transform="matrix(1.00331 0 0 1 860 192)"/><path d="M288.796 37.6963C288.887 35.7939 289.096 33.889 288.738 31.973 287.543 32.4134 286.376 34.0188 286.152 35.5359 287.397 35.8398 288.666 35.6711 289.923 35.6925" stroke="#000000" stroke-width="1.50284" stroke-linecap="round" stroke-linejoin="round" fill="none" transform="matrix(1.00331 0 0 1 860 192)"/><path d="M245.84 206.891C246.143 206.439 246.614 206.093 246.716 205.513 246.84 204.806 246.19 203.897 245.464 203.76 244.357 203.551 243.861 203.821 243.793 204.889 243.695 206.428 243.732 207.976 243.711 209.521" stroke="#000000" stroke-width="1.50284" stroke-linecap="round" stroke-linejoin="round" fill="none" transform="matrix(1.00331 0 0 1 860 192)"/><path d="M221.043 33.9392C221.678 33.9551 222.264 34.2319 222.922 34.2125 223.768 34.1877 224.334 34.5836 224.307 35.5675 224.282 36.5104 223.813 37.0389 222.924 37.2103 222.108 37.3678 221.51 36.8254 220.792 36.6944" stroke="#000000" stroke-width="1.50284" stroke-linecap="round" stroke-linejoin="round" fill="none" transform="matrix(1.00331 0 0 1 860 192)"/><path d="M135.757 181.969C136.124 180.603 135.941 180.431 134.638 180.062 133.612 179.772 132.625 179.993 131.624 179.982 130.961 179.975 130.527 180.335 130.622 181.092" stroke="#000000" stroke-width="1.50284" stroke-linecap="round" stroke-linejoin="round" fill="none" transform="matrix(1.00331 0 0 1 860 192)"/><path d="M273.705 73.514C274.014 74.734 274.704 75.6405 275.594 76.5695 276.844 77.8749 277.747 79.516 278.77 81.033 279.151 81.5979 279.583 82.041 280.28 82.1553" stroke="#000000" stroke-width="1.75331" stroke-linecap="round" stroke-linejoin="round" fill="none" transform="matrix(1.00331 0 0 1 860 192)"/><path d="M95.0547 171.449C96.3905 171.449 97.7264 171.442 99.0622 171.451 100.242 171.46 100.691 171.876 100.809 173.078 100.843 173.421 100.77 173.798 101.317 173.703" stroke="#000000" stroke-width="1.50284" stroke-linecap="round" stroke-linejoin="round" fill="none" transform="matrix(1.00331 0 0 1 860 192)"/><path d="M100.878 173.829C100.869 174.864 100.246 175.407 99.3121 175.434 97.6724 175.482 96.0373 175.311 94.4285 174.956" stroke="#000000" stroke-width="1.50284" stroke-linecap="round" stroke-linejoin="round" fill="none" transform="matrix(1.00331 0 0 1 860 192)"/><path d="M143.271 149.282C145.567 149.524 147.863 149.436 150.159 149.282" stroke="#000000" stroke-width="1.50284" stroke-linecap="round" stroke-linejoin="round" fill="none" transform="matrix(1.00331 0 0 1 860 192)"/><path d="M223.548 205.513C223.156 205.571 223.103 205.375 223.027 205.017 222.791 203.909 221.375 203.302 220.413 203.817 219.933 204.074 220.012 204.501 220.05 204.886 220.193 206.35 220.062 207.809 220.041 209.271" stroke="#000000" stroke-width="1.50284" stroke-linecap="round" stroke-linejoin="round" fill="none" transform="matrix(1.00331 0 0 1 860 192)"/><path d="M149.908 145.65C147.697 145.736 145.479 145.485 143.271 145.776" stroke="#000000" stroke-width="1.50284" stroke-linecap="round" stroke-linejoin="round" fill="none" transform="matrix(1.00331 0 0 1 860 192)"/><path d="M143.271 153.415C145.483 153.415 147.696 153.415 149.908 153.415" stroke="#000000" stroke-width="1.50284" stroke-linecap="round" stroke-linejoin="round" fill="none" transform="matrix(1.00331 0 0 1 860 192)"/><path d="M202.257 226.303C202.563 227.305 202.262 228.307 202.259 229.308 202.253 231.27 202.257 233.233 202.257 235.195" stroke="#000000" stroke-width="1.50284" stroke-linecap="round" stroke-linejoin="round" fill="none" transform="matrix(1.00331 0 0 1 860 192)"/><path d="M200.754 218.413C200.21 218.254 199.803 217.899 199.36 217.558 198.781 217.113 198.034 217.207 197.379 217.427 196.773 217.63 196.465 218.187 196.648 218.78 196.83 219.367 197.04 220.145 197.999 219.79" stroke="#000000" stroke-width="1.25237" stroke-linecap="round" stroke-linejoin="round" fill="none" transform="matrix(1.00331 0 0 1 860 192)"/><path d="M227.931 99.1875C227.931 101.358 227.931 103.529 227.931 105.7" stroke="#000000" stroke-width="2.25426" stroke-linecap="round" stroke-linejoin="round" fill="none" transform="matrix(1.00331 0 0 1 860 192)"/><path d="M224.174 51.9732C224.855 51.9191 225.57 52.1515 226.186 51.6072 226.63 51.215 226.831 50.7133 226.647 50.2318 226.465 49.7527 226.051 49.3261 225.426 49.3474 224.987 49.3624 224.549 49.4164 224.048 49.4581 224.048 51.1366 224.048 52.8073 224.048 54.478" stroke="#000000" stroke-width="1.25237" stroke-linecap="round" stroke-linejoin="round" fill="none" transform="matrix(1.00331 0 0 1 860 192)"/><path d="M239.327 98.0603C239.369 99.3962 239.395 100.733 239.458 102.068 239.499 102.936 239.368 103.742 238.826 104.447" stroke="#000000" stroke-width="2.00379" stroke-linecap="round" stroke-linejoin="round" fill="none" transform="matrix(1.00331 0 0 1 860 192)"/><path d="M290.173 221.544C289.371 221.475 288.516 221.742 287.761 221.239 287.998 220.305 288.763 219.887 289.303 219.295 289.844 218.702 290.488 218.13 289.787 217.295 289.204 216.601 288.237 216.782 287.418 217.661" stroke="#000000" stroke-width="1.25237" stroke-linecap="round" stroke-linejoin="round" fill="none" transform="matrix(1.00331 0 0 1 860 192)"/><path d="M211.337 31.6849C210.292 32.7216 209.455 33.891 208.984 35.4351 210.207 36.0998 211.533 35.4869 212.777 35.6925" stroke="#000000" stroke-width="1.50284" stroke-linecap="round" stroke-linejoin="round" fill="none" transform="matrix(1.00331 0 0 1 860 192)"/><path d="M130.121 149.658C128.034 149.658 125.946 149.658 123.859 149.658" stroke="#000000" stroke-width="1.50284" stroke-linecap="round" stroke-linejoin="round" fill="none" transform="matrix(1.00331 0 0 1 860 192)"/><path d="M130.121 145.4C128.034 145.525 125.946 145.65 123.859 145.776" stroke="#000000" stroke-width="1.50284" stroke-linecap="round" stroke-linejoin="round" fill="none" transform="matrix(1.00331 0 0 1 860 192)"/><path d="M130.246 153.54C128.201 153.298 126.155 153.448 124.11 153.54" stroke="#000000" stroke-width="1.50284" stroke-linecap="round" stroke-linejoin="round" fill="none" transform="matrix(1.00331 0 0 1 860 192)"/><path d="M201.882 151.912C201.608 153.953 201.828 156.004 201.756 158.049" stroke="#000000" stroke-width="1.50284" stroke-linecap="round" stroke-linejoin="round" fill="none" transform="matrix(1.00331 0 0 1 860 192)"/><path d="M189.608 151.912C189.536 153.957 189.758 156.008 189.483 158.049" stroke="#000000" stroke-width="1.75331" stroke-linecap="round" stroke-linejoin="round" fill="none" transform="matrix(1.00331 0 0 1 860 192)"/><path d="M312.215 151.912C312.215 153.958 312.215 156.003 312.215 158.049" stroke="#000000" stroke-width="1.50284" stroke-linecap="round" stroke-linejoin="round" fill="none" transform="matrix(1.00331 0 0 1 860 192)"/><path d="M176.959 36.6944C176.839 35.1076 177.242 33.4796 176.67 31.9347 175.871 31.9203 175.474 32.3405 175.206 32.9373" stroke="#000000" stroke-width="1.50284" stroke-linecap="round" stroke-linejoin="round" fill="none" transform="matrix(1.00331 0 0 1 860 192)"/><path d="M229.684 151.912C229.453 152.822 229.581 153.749 229.564 154.667 229.543 155.794 229.559 156.922 229.559 158.049" stroke="#000000" stroke-width="1.50284" stroke-linecap="round" stroke-linejoin="round" fill="none" transform="matrix(1.00331 0 0 1 860 192)"/><path d="M278.276 151.912C278.203 153.957 278.425 156.008 278.151 158.049" stroke="#000000" stroke-width="1.75331" stroke-linecap="round" stroke-linejoin="round" fill="none" transform="matrix(1.00331 0 0 1 860 192)"/><path d="M215.658 151.912C215.805 153.916 215.836 155.92 215.658 157.924" stroke="#000000" stroke-width="1.50284" stroke-linecap="round" stroke-linejoin="round" fill="none" transform="matrix(1.00331 0 0 1 860 192)"/><path d="M255.232 151.912C255.469 153.916 255.333 155.92 255.232 157.924" stroke="#000000" stroke-width="1.50284" stroke-linecap="round" stroke-linejoin="round" fill="none" transform="matrix(1.00331 0 0 1 860 192)"/><path d="M243.21 151.912C243.21 153.916 243.21 155.92 243.21 157.924" stroke="#000000" stroke-width="1.75331" stroke-linecap="round" stroke-linejoin="round" fill="none" transform="matrix(1.00331 0 0 1 860 192)"/><path d="M301.32 151.912C301.32 153.916 301.32 155.92 301.32 157.924" stroke="#000000" stroke-width="1.75331" stroke-linecap="round" stroke-linejoin="round" fill="none" transform="matrix(1.00331 0 0 1 860 192)"/><path d="M267.005 151.912C267.005 153.916 267.005 155.92 267.005 157.924" stroke="#000000" stroke-width="1.75331" stroke-linecap="round" stroke-linejoin="round" fill="none" transform="matrix(1.00331 0 0 1 860 192)"/><path d="M289.798 151.912C289.798 153.916 289.798 155.92 289.798 157.924" stroke="#000000" stroke-width="1.75331" stroke-linecap="round" stroke-linejoin="round" fill="none" transform="matrix(1.00331 0 0 1 860 192)"/><path d="M185.726 32.4363C186.402 32.2073 186.743 31.3313 187.741 31.6498 188.876 32.012 189.393 32.9677 188.728 33.9366 188.63 34.0802 188.48 34.1883 188.356 34.3151 187.572 35.12 186.638 35.7914 186.102 36.8196" stroke="#000000" stroke-width="1.50284" stroke-linecap="round" stroke-linejoin="round" fill="none" transform="matrix(1.00331 0 0 1 860 192)"/><path d="M185.476 48.7171C185.476 50.6374 185.476 52.5577 185.476 54.478" stroke="#000000" stroke-width="1.50284" stroke-linecap="round" stroke-linejoin="round" fill="none" transform="matrix(1.00331 0 0 1 860 192)"/><path d="M275.521 34.3149C275.646 34.3566 275.794 34.4643 275.893 34.4296 276.662 34.1589 277.296 34.2702 277.642 35.0699 277.887 35.6382 277.823 36.1934 277.403 36.6976 276.848 37.3643 276.081 37.2753 275.401 37.1613 274.876 37.0732 274.535 36.4109 273.893 36.4439" stroke="#000000" stroke-width="1.50284" stroke-linecap="round" stroke-linejoin="round" fill="none" transform="matrix(1.00331 0 0 1 860 192)"/><path d="M189.107 186.603C189.107 188.481 189.107 190.36 189.107 192.238" stroke="#000000" stroke-width="1.75331" stroke-linecap="round" stroke-linejoin="round" fill="none" transform="matrix(1.00331 0 0 1 860 192)"/><path d="M312.09 122.732C310.212 122.783 308.328 122.609 306.454 122.857" stroke="#000000" stroke-width="1.75331" stroke-linecap="round" stroke-linejoin="round" fill="none" transform="matrix(1.00331 0 0 1 860 192)"/><path d="M215.658 186.603C215.699 188.44 215.741 190.276 215.783 192.113" stroke="#000000" stroke-width="1.50284" stroke-linecap="round" stroke-linejoin="round" fill="none" transform="matrix(1.00331 0 0 1 860 192)"/><path d="M201.756 186.603C201.756 188.44 201.756 190.276 201.756 192.113" stroke="#000000" stroke-width="1.50284" stroke-linecap="round" stroke-linejoin="round" fill="none" transform="matrix(1.00331 0 0 1 860 192)"/><path d="M242.584 186.603C242.519 188.397 242.725 190.198 242.458 191.988" stroke="#000000" stroke-width="1.50284" stroke-linecap="round" stroke-linejoin="round" fill="none" transform="matrix(1.00331 0 0 1 860 192)"/><path d="M312.09 186.603C312.09 188.398 312.09 190.193 312.09 191.988" stroke="#000000" stroke-width="1.75331" stroke-linecap="round" stroke-linejoin="round" fill="none" transform="matrix(1.00331 0 0 1 860 192)"/><path d="M301.069 186.603C301.334 187.89 301.125 189.192 301.197 190.485 301.224 190.987 301.278 191.487 301.32 191.988" stroke="#000000" stroke-width="1.50284" stroke-linecap="round" stroke-linejoin="round" fill="none" transform="matrix(1.00331 0 0 1 860 192)"/><path d="M289.547 186.603C289.813 187.89 289.604 189.192 289.675 190.485 289.702 190.987 289.756 191.487 289.798 191.988" stroke="#000000" stroke-width="1.50284" stroke-linecap="round" stroke-linejoin="round" fill="none" transform="matrix(1.00331 0 0 1 860 192)"/><path d="M278.276 186.603C278.276 188.398 278.276 190.193 278.276 191.988" stroke="#000000" stroke-width="1.75331" stroke-linecap="round" stroke-linejoin="round" fill="none" transform="matrix(1.00331 0 0 1 860 192)"/><path d="M266.754 186.603C266.996 188.398 266.908 190.193 266.754 191.988" stroke="#000000" stroke-width="1.50284" stroke-linecap="round" stroke-linejoin="round" fill="none" transform="matrix(1.00331 0 0 1 860 192)"/><path d="M229.434 186.603C229.699 187.89 229.49 189.192 229.561 190.485 229.589 190.987 229.642 191.487 229.684 191.988" stroke="#000000" stroke-width="1.50284" stroke-linecap="round" stroke-linejoin="round" fill="none" transform="matrix(1.00331 0 0 1 860 192)"/><path d="M254.857 186.603C254.792 188.397 254.998 190.198 254.731 191.988" stroke="#000000" stroke-width="1.50284" stroke-linecap="round" stroke-linejoin="round" fill="none" transform="matrix(1.00331 0 0 1 860 192)"/><path d="M197.749 34.4401C198.406 34.6109 199.145 33.9278 199.763 34.6816 200.11 35.1034 200.419 35.5509 200.23 36.0595 200.03 36.5995 199.702 37.1605 199.001 37.1878 198.271 37.2161 197.489 37.3407 196.997 36.5691" stroke="#000000" stroke-width="1.50284" stroke-linecap="round" stroke-linejoin="round" fill="none" transform="matrix(1.00331 0 0 1 860 192)"/><path d="M277.024 34.3149C277.322 33.5922 278.174 32.8816 277.38 32.0796 276.552 31.2425 275.616 31.4408 274.762 32.1776 274.691 32.2396 274.519 32.1858 274.394 32.1858" stroke="#000000" stroke-width="1.50284" stroke-linecap="round" stroke-linejoin="round" fill="none" transform="matrix(1.00331 0 0 1 860 192)"/><path d="M224.8 31.8101C224.174 31.8101 223.545 31.8497 222.922 31.802 221.553 31.6973 221.549 31.6847 221.544 33.0625 221.543 33.3547 221.544 33.6469 221.544 33.9392" stroke="#000000" stroke-width="1.50284" stroke-linecap="round" stroke-linejoin="round" fill="none" transform="matrix(1.00331 0 0 1 860 192)"/><path d="M234.13 98.5613C234.261 99.3871 234.263 100.226 235.306 100.602 235.76 100.766 236.051 101.334 236.337 101.808 236.937 102.801 237.433 103.866 238.562 104.474 239.284 104.863 239.248 105.704 239.202 106.451" stroke="#000000" stroke-width="2.00379" stroke-linecap="round" stroke-linejoin="round" fill="none" transform="matrix(1.00331 0 0 1 860 192)"/><path d="M234.443 100.315C233.587 101.741 233.978 103.316 233.983 104.823 233.985 105.479 234.018 106.16 234.067 106.827" stroke="#000000" stroke-width="2.25426" stroke-linecap="round" stroke-linejoin="round" fill="none" transform="matrix(1.00331 0 0 1 860 192)"/><path d="M241.331 203.76C240.663 203.802 239.994 203.891 239.328 203.872 238.644 203.854 238.551 204.319 238.593 204.76 238.701 205.892 238.636 207.017 238.571 208.143 238.528 208.895 238.964 209.17 239.57 208.993 240.139 208.828 240.663 208.98 241.206 208.957" stroke="#000000" stroke-width="1.50284" stroke-linecap="round" stroke-linejoin="round" fill="none" transform="matrix(1.00331 0 0 1 860 192)"/><path d="M238.826 79.0244C236.196 79.0661 233.566 79.1079 230.937 79.1496" stroke="#000000" stroke-width="2.50473" stroke-linecap="round" stroke-linejoin="round" fill="none" transform="matrix(1.00331 0 0 1 860 192)"/><path d="M199.502 49.8442C199.502 51.3888 199.502 52.9334 199.502 54.478" stroke="#000000" stroke-width="1.50284" stroke-linecap="round" stroke-linejoin="round" fill="none" transform="matrix(1.00331 0 0 1 860 192)"/><path d="M201.381 214.155C199.849 213.865 198.306 213.72 196.747 213.779" stroke="#000000" stroke-width="1.50284" stroke-linecap="round" stroke-linejoin="round" fill="none" transform="matrix(1.00331 0 0 1 860 192)"/><path d="M192.739 98.6865C193.85 100.175 194.644 101.731 194.685 103.695 194.702 104.538 195.453 105.366 195.87 106.201" stroke="#000000" stroke-width="2.00379" stroke-linecap="round" stroke-linejoin="round" fill="none" transform="matrix(1.00331 0 0 1 860 192)"/><path d="M304.826 219.289C304.91 219.123 304.99 218.954 305.077 218.789 305.379 218.219 305.582 217.653 304.95 217.162 304.455 216.778 303.955 216.792 303.446 217.158 303.152 217.369 302.808 217.438 302.447 217.411" stroke="#000000" stroke-width="1.25237" stroke-linecap="round" stroke-linejoin="round" fill="none" transform="matrix(1.00331 0 0 1 860 192)"/><path d="M194.994 49.218C194.925 50.7619 195.14 52.3134 194.868 53.8518" stroke="#000000" stroke-width="1.50284" stroke-linecap="round" stroke-linejoin="round" fill="none" transform="matrix(1.00331 0 0 1 860 192)"/><path d="M192.739 99.1875C191.426 100.042 191.176 101.495 190.904 102.828 190.643 104.11 189.934 105.107 189.358 106.201" stroke="#000000" stroke-width="2.00379" stroke-linecap="round" stroke-linejoin="round" fill="none" transform="matrix(1.00331 0 0 1 860 192)"/><path d="M325.866 32.0606C325.866 33.6488 325.866 35.2371 325.866 37.0954 325.581 37.3988 324.877 37.1362 324.238 37.1953" stroke="#000000" stroke-width="1.50284" stroke-linecap="round" stroke-linejoin="round" fill="none" transform="matrix(1.00331 0 0 1 860 192)"/><path d="M233.504 36.8822C235.233 37.6807 236.581 36.9089 236.542 35.0669 236.531 34.551 236.794 34.1643 236.837 33.69 236.925 32.7293 236.491 32.0535 235.685 31.7086 234.893 31.3691 234.128 31.6313 233.57 32.3137 232.876 33.1623 233.437 34.3275 234.819 34.941" stroke="#000000" stroke-width="1.50284" stroke-linecap="round" stroke-linejoin="round" fill="none" transform="matrix(1.00331 0 0 1 860 192)"/><path d="M308.646 203.384C309.01 205.36 308.377 207.304 308.458 209.271" stroke="#000000" stroke-width="1.75331" stroke-linecap="round" stroke-linejoin="round" fill="none" transform="matrix(1.00331 0 0 1 860 192)"/><path d="M304.951 204.011C304.951 205.054 304.958 206.098 304.95 207.142 304.938 208.593 304.765 208.742 303.323 208.582" stroke="#000000" stroke-width="1.50284" stroke-linecap="round" stroke-linejoin="round" fill="none" transform="matrix(1.00331 0 0 1 860 192)"/><path d="M236.322 50.3452C235.504 51.6305 235.736 53.0749 235.696 54.478" stroke="#000000" stroke-width="1.25237" stroke-linecap="round" stroke-linejoin="round" fill="none" transform="matrix(1.00331 0 0 1 860 192)"/><path d="M311.965 203.259C312.038 204.614 312.374 205.963 311.62 207.285 311.32 207.811 311.989 208.404 311.965 209.02" stroke="#000000" stroke-width="1.75331" stroke-linecap="round" stroke-linejoin="round" fill="none" transform="matrix(1.00331 0 0 1 860 192)"/><path d="M157.172 91.0471C157.245 92.4238 157.021 93.8094 157.297 95.1799" stroke="#000000" stroke-width="1.50284" stroke-linecap="round" stroke-linejoin="round" fill="none" transform="matrix(1.00331 0 0 1 860 192)"/><path d="M324.488 80.9029C323.975 82.2544 324.353 83.66 324.238 85.0357" stroke="#000000" stroke-width="1.50284" stroke-linecap="round" stroke-linejoin="round" fill="none" transform="matrix(1.00331 0 0 1 860 192)"/><path d="M275.646 203.259C275.704 204.219 275.513 205.189 275.772 206.14 275.912 206.653 275.467 206.904 275.27 207.267" stroke="#000000" stroke-width="1.50284" stroke-linecap="round" stroke-linejoin="round" fill="none" transform="matrix(1.00331 0 0 1 860 192)"/><path d="M230.811 203.76C231.074 205.046 231.05 206.4 231.921 207.531 232.33 208.061 231.91 208.69 231.813 209.271" stroke="#000000" stroke-width="1.50284" stroke-linecap="round" stroke-linejoin="round" fill="none" transform="matrix(1.00331 0 0 1 860 192)"/><path d="M266.379 209.02C266.545 207.789 267.088 206.835 268.368 206.365 269.23 206.839 270.001 207.423 270.126 208.52 270.186 209.047 270.515 209.035 270.887 209.02" stroke="#000000" stroke-width="1.25237" stroke-linecap="round" stroke-linejoin="round" fill="none" transform="matrix(1.00331 0 0 1 860 192)"/><path d="M262.371 32.6868C262.428 31.8197 263.052 31.5542 263.747 31.5884 264.256 31.6135 264.879 31.6015 265.14 32.3061 265.399 33.0089 265.082 33.562 264.734 34.0526 264.083 34.971 262.91 35.477 262.621 36.6944" stroke="#000000" stroke-width="1.50284" stroke-linecap="round" stroke-linejoin="round" fill="none" transform="matrix(1.00331 0 0 1 860 192)"/><path d="M272.39 203.259C272.831 205.18 272.163 207.1 272.39 209.02" stroke="#000000" stroke-width="1.50284" stroke-linecap="round" stroke-linejoin="round" fill="none" transform="matrix(1.00331 0 0 1 860 192)"/><path d="M234.193 75.142C234.127 76.8113 233.831 78.4648 234.04 80.1549 234.152 81.0543 233.984 81.9883 233.942 82.9067" stroke="#000000" stroke-width="2.50473" stroke-linecap="round" stroke-linejoin="round" fill="none" transform="matrix(1.00331 0 0 1 860 192)"/><path d="M211.775 217.536C210.734 216.486 209.248 216.768 208.018 216.284" stroke="#000000" stroke-width="1.25237" stroke-linecap="round" stroke-linejoin="round" fill="none" transform="matrix(1.00331 0 0 1 860 192)"/><path d="M233.566 49.218C233.497 50.5864 233.274 51.9037 232.314 52.9751" stroke="#000000" stroke-width="1.25237" stroke-linecap="round" stroke-linejoin="round" fill="none" transform="matrix(1.00331 0 0 1 860 192)"/><path d="M298.314 216.534C298.314 216.785 298.205 217.142 298.331 217.269 299.542 218.501 299.419 220.361 300.443 221.669" stroke="#000000" stroke-width="1.25237" stroke-linecap="round" stroke-linejoin="round" fill="none" transform="matrix(1.00331 0 0 1 860 192)"/><path d="M272.515 216.91C272.557 218.288 272.599 219.665 272.64 221.043" stroke="#000000" stroke-width="1.50284" stroke-linecap="round" stroke-linejoin="round" fill="none" transform="matrix(1.00331 0 0 1 860 192)"/><path d="M228.432 48.9676C228.525 50.2842 228.789 51.5552 229.434 52.7247" stroke="#000000" stroke-width="1.25237" stroke-linecap="round" stroke-linejoin="round" fill="none" transform="matrix(1.00331 0 0 1 860 192)"/><path d="M239.578 50.3452C240.236 51.5161 239.948 52.7524 239.828 53.977" stroke="#000000" stroke-width="1.25237" stroke-linecap="round" stroke-linejoin="round" fill="none" transform="matrix(1.00331 0 0 1 860 192)"/><path d="M310.712 44.3338C311.275 44.2045 311.742 43.8902 312.08 43.4494 312.545 42.8436 313.098 42.8703 313.755 43.0981 313.308 44.3164 313.455 45.5793 313.53 46.8385" stroke="#000000" stroke-width="1.50284" stroke-linecap="round" stroke-linejoin="round" fill="none" transform="matrix(1.00331 0 0 1 860 192)"/><path d="M245.088 221.293C244.556 220.773 244.212 220.223 244.025 219.429 243.797 218.464 243.632 217.346 242.616 216.515 241.428 218.134 241.42 220.137 240.58 221.794" stroke="#000000" stroke-width="1.25237" stroke-linecap="round" stroke-linejoin="round" fill="none" transform="matrix(1.00331 0 0 1 860 192)"/><path d="M219.54 51.5975C218.39 51.8963 217.165 51.505 216.033 51.9732" stroke="#000000" stroke-width="1.50284" stroke-linecap="round" stroke-linejoin="round" fill="none" transform="matrix(1.00331 0 0 1 860 192)"/><path d="M211.525 32.0606C211.834 32.6128 211.782 33.2177 211.774 33.8139 211.758 34.8994 211.734 35.9847 211.713 37.0701" stroke="#000000" stroke-width="1.50284" stroke-linecap="round" stroke-linejoin="round" fill="none" transform="matrix(1.00331 0 0 1 860 192)"/><path d="M240.83 51.5975C242.228 51.9508 243.74 51.5294 245.088 52.2237" stroke="#000000" stroke-width="1.50284" stroke-linecap="round" stroke-linejoin="round" fill="none" transform="matrix(1.00331 0 0 1 860 192)"/><path d="M207.517 53.8518C207.278 53.777 206.987 54.0463 206.847 53.4872 206.655 52.7265 205.978 52.2187 205.312 51.8063 204.004 52.2895 203.334 53.236 203.009 54.478" stroke="#000000" stroke-width="1.25237" stroke-linecap="round" stroke-linejoin="round" fill="none" transform="matrix(1.00331 0 0 1 860 192)"/><path d="M210.398 223.047C210.252 222.642 210.643 222.187 210.16 221.779 209.213 220.981 208.443 221.193 208.147 222.421 208.079 222.707 208.06 223.005 208.018 223.297" stroke="#000000" stroke-width="1.25237" stroke-linecap="round" stroke-linejoin="round" fill="none" transform="matrix(1.00331 0 0 1 860 192)"/><path d="M199.377 34.3149C199.434 33.9144 199.919 33.7279 199.966 33.4323 200.041 32.9552 200.372 32.3554 199.867 31.9491 199.41 31.5817 198.948 31.1506 198.225 31.6488 197.946 31.8414 197.55 31.9545 197.247 32.1849 197.211 32.2127 197.164 32.2276 197.123 32.2485 197.143 32.2693 197.164 32.2902 197.185 32.3111" stroke="#000000" stroke-width="1.50284" stroke-linecap="round" stroke-linejoin="round" fill="none" transform="matrix(1.00331 0 0 1 860 192)"/><path d="M236.322 203.76C235.911 205.002 236.181 206.448 235.199 207.521 235.167 207.555 235.195 207.642 235.195 207.705 235.174 207.684 235.153 207.663 235.132 207.642" stroke="#000000" stroke-width="1.50284" stroke-linecap="round" stroke-linejoin="round" fill="none" transform="matrix(1.00331 0 0 1 860 192)"/><path d="M212.026 217.348C210.923 218.529 209.574 218.883 208.018 218.538" stroke="#000000" stroke-width="1.25237" stroke-linecap="round" stroke-linejoin="round" fill="none" transform="matrix(1.00331 0 0 1 860 192)"/><path d="M232.314 54.478C232.453 53.1713 231.772 52.2252 230.905 51.2496 229.977 52.1704 229.413 53.184 229.434 54.478" stroke="#000000" stroke-width="1.25237" stroke-linecap="round" stroke-linejoin="round" fill="none" transform="matrix(1.00331 0 0 1 860 192)"/><path d="M324.363 79.6506C324.34 80.2591 324.53 80.6877 325.095 81.0586 325.568 81.3696 325.983 81.896 326.209 82.4198 326.44 82.9544 326.817 83.2398 327.244 83.5329" stroke="#000000" stroke-width="1.25237" stroke-linecap="round" stroke-linejoin="round" fill="none" transform="matrix(1.00331 0 0 1 860 192)"/><path d="M314.344 219.665C313.327 220.253 312.41 220.908 312.591 222.295" stroke="#000000" stroke-width="1.00189" stroke-linecap="round" stroke-linejoin="round" fill="none" transform="matrix(1.00331 0 0 1 860 192)"/><path d="M223.047 219.289C223.196 220.805 222.827 222.292 222.796 223.798" stroke="#000000" stroke-width="1.25237" stroke-linecap="round" stroke-linejoin="round" fill="none" transform="matrix(1.00331 0 0 1 860 192)"/><path d="M280.155 203.259C280.155 203.844 280.165 204.428 280.152 205.012 280.136 205.716 280.127 206.331 280.889 206.793 281.757 207.32 282.048 208.26 282.033 209.271" stroke="#000000" stroke-width="1.50284" stroke-linecap="round" stroke-linejoin="round" fill="none" transform="matrix(1.00331 0 0 1 860 192)"/><path d="M266.692 216.785C265.677 218.072 265.641 219.737 264.993 221.165 264.925 221.316 264.75 221.419 264.625 221.544" stroke="#000000" stroke-width="1.25237" stroke-linecap="round" stroke-linejoin="round" fill="none" transform="matrix(1.00331 0 0 1 860 192)"/><path d="M266.879 217.035C267.479 217.862 267.899 218.787 267.982 219.792 268.049 220.607 268.979 221.139 268.633 222.045" stroke="#000000" stroke-width="1.50284" stroke-linecap="round" stroke-linejoin="round" fill="none" transform="matrix(1.00331 0 0 1 860 192)"/><path d="M231.062 98.8118C229.267 98.8118 227.472 98.8118 225.677 98.8118" stroke="#000000" stroke-width="2.50473" stroke-linecap="round" stroke-linejoin="round" fill="none" transform="matrix(1.00331 0 0 1 860 192)"/><path d="M311.464 207.392C310.86 207.161 310.468 206.65 310.243 206.126 309.989 205.534 309.543 205.23 309.084 204.887" stroke="#000000" stroke-width="1.25237" stroke-linecap="round" stroke-linejoin="round" fill="none" transform="matrix(1.00331 0 0 1 860 192)"/><path d="M280.155 206.265C278.918 206.663 278.601 207.889 277.9 208.77" stroke="#000000" stroke-width="1.25237" stroke-linecap="round" stroke-linejoin="round" fill="none" transform="matrix(1.00331 0 0 1 860 192)"/><path d="M225.677 219.039C225.625 220.071 225.878 221.14 225.301 222.107" stroke="#000000" stroke-width="1.25237" stroke-linecap="round" stroke-linejoin="round" fill="none" transform="matrix(1.00331 0 0 1 860 192)"/><path d="M327.87 79.0244C327.701 80.5654 328.174 82.1535 327.511 83.6657 327.426 83.8606 327.577 84.1591 327.619 84.4095" stroke="#000000" stroke-width="1.25237" stroke-linecap="round" stroke-linejoin="round" fill="none" transform="matrix(1.00331 0 0 1 860 192)"/><path d="M282.659 217.286C282.063 218.109 281.605 218.941 281.608 220.041 281.609 220.541 281.073 221.043 280.781 221.544" stroke="#000000" stroke-width="1.25237" stroke-linecap="round" stroke-linejoin="round" fill="none" transform="matrix(1.00331 0 0 1 860 192)"/><path d="M303.198 219.289C303.78 219.392 304.424 219.055 304.952 219.54 305.358 219.913 305.652 220.427 305.42 220.902 305.164 221.43 304.741 221.932 303.943 221.69 303.62 221.592 303.254 221.614 302.948 221.419" stroke="#000000" stroke-width="1.25237" stroke-linecap="round" stroke-linejoin="round" fill="none" transform="matrix(1.00331 0 0 1 860 192)"/><path d="M272.891 205.013C274.076 206.165 275.463 207.179 275.646 209.02" stroke="#000000" stroke-width="1.25237" stroke-linecap="round" stroke-linejoin="round" fill="none" transform="matrix(1.00331 0 0 1 860 192)"/><path d="M282.659 216.534C282.59 217.538 283.806 217.942 283.782 218.914 283.756 219.904 284.259 220.704 284.663 221.544" stroke="#000000" stroke-width="1.25237" stroke-linecap="round" stroke-linejoin="round" fill="none" transform="matrix(1.00331 0 0 1 860 192)"/><path d="M298.189 217.661C298.063 217.787 297.874 217.89 297.823 218.041 297.347 219.454 296.895 220.876 296.435 222.295" stroke="#000000" stroke-width="1.00189" stroke-linecap="round" stroke-linejoin="round" fill="none" transform="matrix(1.00331 0 0 1 860 192)"/><path d="M325.49 217.035C325.749 218.001 324.752 218.447 324.562 219.278 324.346 220.221 324.303 221.307 323.486 222.045" stroke="#000000" stroke-width="1.25237" stroke-linecap="round" stroke-linejoin="round" fill="none" transform="matrix(1.00331 0 0 1 860 192)"/><path d="M210.398 221.794C211.735 220.896 212.328 220.955 212.644 222.047 212.78 222.516 212.461 222.897 212.276 223.297" stroke="#000000" stroke-width="1.25237" stroke-linecap="round" stroke-linejoin="round" fill="none" transform="matrix(1.00331 0 0 1 860 192)"/><path d="M201.005 217.286C200.861 218.553 201.035 219.8 201.255 221.043" stroke="#000000" stroke-width="1.25237" stroke-linecap="round" stroke-linejoin="round" fill="none" transform="matrix(1.00331 0 0 1 860 192)"/><path d="M325.615 217.787C326.189 218.618 326.895 219.401 326.617 220.542" stroke="#000000" stroke-width="1.25237" stroke-linecap="round" stroke-linejoin="round" fill="none" transform="matrix(1.00331 0 0 1 860 192)"/><path d="M233.566 204.261C233.869 205.698 232.841 206.594 232.189 207.642" stroke="#000000" stroke-width="1.50284" stroke-linecap="round" stroke-linejoin="round" fill="none" transform="matrix(1.00331 0 0 1 860 192)"/><path d="M314.344 217.411C314.364 218.546 314.009 219.785 315.457 220.449 315.806 220.609 315.972 221.168 316.223 221.544" stroke="#000000" stroke-width="1.50284" stroke-linecap="round" stroke-linejoin="round" fill="none" transform="matrix(1.00331 0 0 1 860 192)"/><path d="M158.925 90.5462C157.59 90.6296 156.254 90.7131 154.918 90.7966" stroke="#000000" stroke-width="1.75331" stroke-linecap="round" stroke-linejoin="round" fill="none" transform="matrix(1.00331 0 0 1 860 192)"/><path d="M201.756 49.4685C200.254 49.4685 198.751 49.4685 197.248 49.4685" stroke="#000000" stroke-width="1.50284" stroke-linecap="round" stroke-linejoin="round" fill="none" transform="matrix(1.00331 0 0 1 860 192)"/><path d="M233.692 205.764C234.457 206.813 235.401 207.791 235.069 209.271" stroke="#000000" stroke-width="1.50284" stroke-linecap="round" stroke-linejoin="round" fill="none" transform="matrix(1.00331 0 0 1 860 192)"/><path d="M324.488 220.542C324.781 220.584 325.072 220.656 325.365 220.662 327.144 220.7 327.144 220.695 327.494 222.546" stroke="#000000" stroke-width="1.25237" stroke-linecap="round" stroke-linejoin="round" fill="none" transform="matrix(1.00331 0 0 1 860 192)"/><path d="M225.677 223.798C225.702 222.095 224.355 221.357 223.297 220.417" stroke="#000000" stroke-width="1.25237" stroke-linecap="round" stroke-linejoin="round" fill="none" transform="matrix(1.00331 0 0 1 860 192)"/><path d="M244.086 206.766C245.213 206.612 246.067 206.873 246.355 208.14 246.426 208.454 246.675 208.728 246.842 209.02" stroke="#000000" stroke-width="1.50284" stroke-linecap="round" stroke-linejoin="round" fill="none" transform="matrix(1.00331 0 0 1 860 192)"/><path d="M175.457 36.9448C176.542 36.9031 177.627 36.8613 178.713 36.8196" stroke="#000000" stroke-width="1.50284" stroke-linecap="round" stroke-linejoin="round" fill="none" transform="matrix(1.00331 0 0 1 860 192)"/><path d="M271.388 221.293C272.393 221.265 273.402 221.121 274.394 221.419" stroke="#000000" stroke-width="1.50284" stroke-linecap="round" stroke-linejoin="round" fill="none" transform="matrix(1.00331 0 0 1 860 192)"/><path d="M236.009 49.3433C236.165 50.4036 237.399 50.4214 237.854 51.3961 238.371 50.4912 239.72 50.5903 239.766 49.3433" stroke="#000000" stroke-width="1.50284" stroke-linecap="round" stroke-linejoin="round" fill="none" transform="matrix(1.00331 0 0 1 860 192)"/><path d="M109.833 61.8669C108.266 62.1886 108.081 62.4123 108.079 63.996 108.079 64.7891 108.072 65.5824 108.081 66.3754 108.093 67.5176 108.482 67.9734 109.582 67.9945 111.335 68.0282 113.089 68.0244 114.842 67.9951 115.78 67.9795 116.298 67.3632 116.338 66.25 116.372 65.291 116.329 64.3296 116.35 63.3699 116.369 62.4932 116.006 62.0829 115.095 61.9722 113.381 61.7639 111.669 61.9408 109.958 61.8669" stroke="#000000" stroke-width="1.50284" stroke-linecap="round" stroke-linejoin="round" fill="none" transform="matrix(1.00331 0 0 1 860 192)"/><path d="M88.1666 118.599C87.2313 119.405 87.0094 120.531 87.5455 121.979 87.9066 122.954 88.6757 123.279 89.6697 123.238 90.9215 123.185 92.1735 123.266 93.429 123.13 94.2134 123.046 94.5712 122.789 94.8383 121.992 95.5386 119.904 94.7699 118.599 92.6752 118.599 91.2141 118.599 89.753 118.599 88.2919 118.599" stroke="#000000" stroke-width="1.50284" stroke-linecap="round" stroke-linejoin="round" fill="none" transform="matrix(1.00331 0 0 1 860 192)"/><path d="M142.144 65.8745C140.046 66.5799 139.067 68.0807 139.27 70.3824 139.441 72.3146 140.837 73.4417 142.648 73.7459 144.414 74.0428 146.821 72.8875 147.147 70.1318 147.41 67.9054 145.614 65.8946 143.396 65.875 143.02 65.8717 142.645 65.8745 142.269 65.8745" stroke="#000000" stroke-width="1.50284" stroke-linecap="round" stroke-linejoin="round" fill="none" transform="matrix(1.00331 0 0 1 860 192)"/><path d="M130.622 65.624C128.14 66.3324 127.081 67.6465 126.971 69.8811 126.886 71.5907 128.263 73.5556 130.622 73.6347 133.481 73.7305 134.584 71.7148 134.77 70.1344 135.039 67.8609 133.377 65.6918 130.747 65.624" stroke="#000000" stroke-width="1.50284" stroke-linecap="round" stroke-linejoin="round" fill="none" transform="matrix(1.00331 0 0 1 860 192)"/><path d="M164.937 127.241C163.453 127.566 163.435 127.588 163.434 129.119 163.433 130.413 163.47 131.709 163.423 133.001 163.38 134.203 164.116 135.29 165.565 135.15 166.599 135.05 167.651 135.106 168.694 135.139 169.364 135.16 169.874 134.92 169.929 134.252 170.077 132.461 170.159 130.67 169.97 128.866 169.864 127.851 169.353 127.501 168.446 127.353 167.317 127.167 166.189 127.287 165.062 127.241" stroke="#000000" stroke-width="1.50284" stroke-linecap="round" stroke-linejoin="round" fill="none" transform="matrix(1.00331 0 0 1 860 192)"/><path d="M89.0433 128.368C88.5431 128.62 87.6898 128.463 87.5795 129.126 87.4238 130.061 87.1903 131.057 87.6115 131.996 87.8277 132.478 88.2395 132.649 88.7931 132.638 90.3787 132.604 91.9657 132.611 93.5518 132.631 94.4301 132.643 94.8453 132.251 94.8056 131.373 94.7962 131.165 94.8042 130.956 94.8042 130.747 94.8042 128.646 94.7264 128.569 92.5499 128.492 91.4227 128.453 90.2957 128.409 89.1685 128.368" stroke="#000000" stroke-width="1.50284" stroke-linecap="round" stroke-linejoin="round" fill="none" transform="matrix(1.00331 0 0 1 860 192)"/><path d="M163.183 64.4969C162.38 64.8724 162.131 65.5039 162.166 66.3761 162.224 67.8349 162.16 69.2981 162.188 70.7586 162.212 71.994 162.493 72.2689 163.684 72.2568 165.271 72.2408 166.861 72.3525 168.444 72.1386 169.643 71.9766 169.893 71.7052 169.949 70.5084 170.016 69.0468 170.121 67.593 169.965 66.123 169.816 64.717 169.677 64.4994 168.318 64.4975 166.648 64.4951 164.979 64.4969 163.309 64.4969" stroke="#000000" stroke-width="1.50284" stroke-linecap="round" stroke-linejoin="round" fill="none" transform="matrix(1.00331 0 0 1 860 192)"/><path d="M248.595 216.534C247.023 217.721 246.63 219.305 247.592 220.543 248.47 221.673 249.714 221.534 250.342 220.163 251.082 218.548 250.284 216.802 248.72 216.534" stroke="#000000" stroke-width="1.25237" stroke-linecap="round" stroke-linejoin="round" fill="none" transform="matrix(1.00331 0 0 1 860 192)"/><path d="M252.352 62.4931C251.117 63.1056 250.042 63.7406 249.802 65.367 249.56 67.0172 250.437 68.8824 251.976 69.2559 253.767 69.6906 255.727 68.568 256.108 66.8761 256.733 64.0938 254.887 62.1506 252.477 62.4931" stroke="#000000" stroke-width="1.50284" stroke-linecap="round" stroke-linejoin="round" fill="none" transform="matrix(1.00331 0 0 1 860 192)"/><path d="M142.394 53.6013C140.031 54.5498 139.041 56.1671 139.534 58.6066 139.966 60.7401 142.667 62.2409 145.14 61.2184 146.966 60.4639 147.895 58.4501 147.393 56.6098 146.885 54.7479 145.112 53.301 143.395 53.5945 143.111 53.643 142.812 53.6013 142.519 53.6013" stroke="#000000" stroke-width="1.50284" stroke-linecap="round" stroke-linejoin="round" fill="none" transform="matrix(1.00331 0 0 1 860 192)"/><path d="M129.87 53.3508C127.989 53.9834 126.898 55.469 126.715 57.2306 126.483 59.4514 128.754 61.4007 130.622 61.3851 133.006 61.3651 134.872 59.6694 134.88 57.3584 134.888 54.9962 133.267 53.3748 130.872 53.3512 130.58 53.3484 130.288 53.3508 129.996 53.3508" stroke="#000000" stroke-width="1.50284" stroke-linecap="round" stroke-linejoin="round" fill="none" transform="matrix(1.00331 0 0 1 860 192)"/><path d="M207.016 166.314C204.566 166.915 202.854 168.281 202.187 170.821 201.37 173.928 203.129 177.368 206.762 178.106 210.531 178.871 213.305 176.054 213.798 173.457 214.342 170.593 212.803 167.459 209.396 166.439 208.653 166.216 207.893 166.356 207.142 166.314" stroke="#000000" stroke-width="1.50284" stroke-linecap="round" stroke-linejoin="round" fill="none" transform="matrix(1.00331 0 0 1 860 192)"/><path d="M226.553 203.885C224.536 204.565 224.276 207.432 225.803 208.643 226.393 209.11 227.049 209.133 227.675 208.76 228.265 208.409 228.948 206.734 228.808 206.14 228.431 204.542 227.933 204.015 226.678 203.885" stroke="#000000" stroke-width="1.50284" stroke-linecap="round" stroke-linejoin="round" fill="none" transform="matrix(1.00331 0 0 1 860 192)"/><path d="M201.756 70.5083C198.293 71.0744 195.572 72.7512 194.135 76.0268 191.329 82.4269 196.91 88.1368 202.132 88.2014 205.443 88.2423 208.061 86.9457 210.401 84.7883 211.81 83.4883 212.987 82.0012 214.026 80.3999 214.348 79.904 214.625 79.3572 214.274 78.7773 212.607 76.0228 210.733 73.4469 207.891 71.7638 206.036 70.6648 203.999 70.3824 201.882 70.5083" stroke="#000000" stroke-width="1.50284" stroke-linecap="round" stroke-linejoin="round" fill="none" transform="matrix(1.00331 0 0 1 860 192)"/><path d="M132.876 163.684C131.138 164.17 130.879 164.504 130.874 166.314 130.868 168.235 130.869 170.155 130.873 172.075 130.878 174.551 133.293 176.046 135.508 174.96 136.001 174.719 136.138 174.339 136.137 173.829 136.127 171.032 136.149 168.235 136.123 165.438 136.114 164.413 135.513 163.795 134.503 163.693 134.007 163.643 133.502 163.684 133.001 163.684" stroke="#000000" stroke-width="1.50284" stroke-linecap="round" stroke-linejoin="round" fill="none" transform="matrix(1.00331 0 0 1 860 192)"/><path d="M163.81 31.4344C162.182 32.0987 162.182 32.0987 162.182 33.9392 162.182 37.1118 162.177 40.2845 162.184 43.4571 162.187 45.0853 162.557 45.4497 164.185 45.4596 165.312 45.4665 166.44 45.4872 167.567 45.4539 168.809 45.4171 169.187 45.035 169.191 43.8328 169.202 40.2428 169.2 36.6526 169.191 33.0625 169.189 32.0258 168.648 31.473 167.566 31.4423 166.357 31.4079 165.145 31.4344 163.935 31.4344" stroke="#000000" stroke-width="1.50284" stroke-linecap="round" stroke-linejoin="round" fill="none" transform="matrix(1.00331 0 0 1 860 192)"/><path d="M339.266 201.13C337.415 201.597 335.81 202.39 334.616 203.998 332.143 207.326 333.383 212.649 338.015 214.151 341.689 215.342 345.739 213.174 346.699 209.281 347.641 205.464 344.701 201.973 341.776 201.355 340.974 201.185 340.192 201.144 339.392 201.13" stroke="#000000" stroke-width="1.75331" stroke-linecap="round" stroke-linejoin="round" fill="none" transform="matrix(1.00331 0 0 1 860 192)"/><path d="M198.5 207.517C197.552 207.804 196.747 208.224 196.747 209.396 197.43 210.097 199.182 210.646 199.864 210.249 200.346 209.968 200.944 209.657 200.885 208.894 200.828 208.171 200.351 207.891 199.761 207.623 199.366 207.444 198.998 207.585 198.625 207.517" stroke="#000000" stroke-width="1.25237" stroke-linecap="round" stroke-linejoin="round" fill="none" transform="matrix(1.00331 0 0 1 860 192)"/><path d="M334.507 97.8099C334.466 97.8307 334.425 97.8672 334.382 97.8703 330.53 98.15 331.366 98.8669 331.031 101.571 330.904 102.591 330.908 103.656 331.115 104.7 331.3 105.632 331.797 106.027 332.753 106.091 336.218 106.322 339.684 106.161 343.149 106.184 344.274 106.192 345.408 106.364 346.538 105.973 347.389 105.679 347.825 105.2 347.777 104.322 347.705 103.027 347.937 101.742 347.801 100.438 347.631 98.8037 346.933 98.0917 345.278 98.0573 341.729 97.9837 338.181 97.8934 334.633 97.8099" stroke="#000000" stroke-width="1.50284" stroke-linecap="round" stroke-linejoin="round" fill="none" transform="matrix(1.00331 0 0 1 860 192)"/><path d="M179.715 49.218C179.174 49.4094 179.083 49.8477 179.087 50.3452 179.092 50.9713 179.066 51.5986 179.096 52.2234 179.12 52.7424 178.849 53.4425 179.475 53.6991 180.208 53.9996 181.044 53.8364 181.704 53.4512 182.523 52.973 182.648 52.0488 182.439 51.2296 182.205 50.3102 181.641 49.5448 180.591 49.3441 180.342 49.2965 180.09 49.2598 179.84 49.218" stroke="#000000" stroke-width="1.25237" stroke-linecap="round" stroke-linejoin="round" fill="none" transform="matrix(1.00331 0 0 1 860 192)"/><path d="M144.147 32.9373C143.75 33.1805 143.312 33.0556 142.895 33.0562 136.633 33.0653 130.371 33.0867 124.11 33.0488 122.046 33.0363 120.369 33.71 120.475 36.6945 120.553 38.906 120.379 41.12 120.591 43.3331 120.75 44.9968 121.949 46.5206 124.11 46.4932 130.705 46.4095 137.301 46.4424 143.897 46.4734 146.354 46.4849 147.859 45.2589 147.9 42.4552 147.925 40.7022 147.878 38.9481 147.91 37.1954 147.975 33.7088 147.036 33.0567 144.273 32.9373" stroke="#000000" stroke-width="1.50284" stroke-linecap="round" stroke-linejoin="round" fill="none" transform="matrix(1.00331 0 0 1 860 192)"/><path d="M208.77 98.6865C208.016 98.7812 207.884 99.2984 207.889 99.9389 207.901 101.275 207.925 102.612 207.886 103.946 207.818 106.258 208.176 106.382 210.641 105.913 212.704 105.521 213.529 104.162 213.278 102.193 213.022 100.181 211.504 98.7143 209.646 98.687 209.396 98.6834 209.145 98.6865 208.895 98.6865" stroke="#000000" stroke-width="2.25426" stroke-linecap="round" stroke-linejoin="round" fill="none" transform="matrix(1.00331 0 0 1 860 192)"/><path d="M206.766 206.766C205.808 207.109 206.02 207.927 206.017 208.644 206.006 211.276 205.763 211.027 208.394 211.024 209.73 211.023 211.066 210.997 212.401 211.034 213.229 211.056 213.522 210.721 213.543 209.897 213.625 206.765 213.647 206.766 210.523 206.766 209.312 206.766 208.102 206.766 206.891 206.766" stroke="#000000" stroke-width="1.50284" stroke-linecap="round" stroke-linejoin="round" fill="none" transform="matrix(1.00331 0 0 1 860 192)"/><path d="M245.464 98.6865C243.162 99.3048 241.966 102.279 243.199 104.453 244.41 106.589 246.562 106.732 247.952 104.936 248.978 103.61 248.909 102.074 248.337 100.568 247.865 99.326 246.908 98.7249 245.589 98.6865" stroke="#000000" stroke-width="2.00379" stroke-linecap="round" stroke-linejoin="round" fill="none" transform="matrix(1.00331 0 0 1 860 192)"/><path d="M332.629 110.709C331.66 110.828 331.426 111.648 331.412 112.338 331.376 114.088 331.216 115.851 331.505 117.597 331.726 118.926 332.079 119.234 333.38 119.222 337.263 119.189 341.145 119.16 345.027 119.093 347.3 119.054 347.782 118.519 347.782 116.22 347.782 115.009 347.755 113.798 347.791 112.588 347.821 111.585 347.386 110.998 346.404 110.84 345.95 110.767 345.486 110.716 345.027 110.715 340.936 110.705 336.845 110.709 332.754 110.709" stroke="#000000" stroke-width="1.75331" stroke-linecap="round" stroke-linejoin="round" fill="none" transform="matrix(1.00331 0 0 1 860 192)"/><path d="M216.284 201.005C215.673 201.222 215.656 201.73 215.656 202.257 215.659 204.804 215.634 207.351 215.667 209.897 215.684 211.185 215.962 211.399 217.286 211.399 227.931 211.4 238.576 211.4 249.221 211.399 250.585 211.399 250.593 211.398 250.597 210.022 250.603 207.476 250.6 204.929 250.598 202.383 250.597 201.01 250.594 201.006 249.221 201.006 238.284 201.004 227.346 201.005 216.409 201.005" stroke="#000000" stroke-width="1.50284" stroke-linecap="round" stroke-linejoin="round" fill="none" transform="matrix(1.00331 0 0 1 860 192)"/><path d="M108.831 94.0528C108.013 94.4791 107.777 95.1873 107.823 96.0569 107.853 96.598 107.865 97.1449 107.822 97.6841 107.699 99.219 108.06 99.66 109.71 99.7855 111.332 99.9089 112.976 99.8919 114.591 99.5624 115.406 99.3962 115.821 98.8772 115.84 98.0602 115.859 97.2258 115.87 96.3895 115.837 95.5559 115.799 94.5576 115.256 94.0631 114.216 94.056 112.463 94.0442 110.709 94.0528 108.956 94.0528" stroke="#000000" stroke-width="1.50284" stroke-linecap="round" stroke-linejoin="round" fill="none" transform="matrix(1.00331 0 0 1 860 192)"/><path d="M304.826 92.4247C303.862 92.5602 303.755 93.3324 303.711 94.0535 303.475 97.8926 303.493 101.735 303.711 105.574 303.757 106.381 304.173 106.986 305.077 107.077 306.955 107.267 308.833 107.279 310.713 107.081 311.634 106.983 311.965 106.454 311.971 105.575 311.998 101.901 312.057 98.2274 312.085 94.5537 312.096 93.2202 311.5 92.5943 310.211 92.5534 308.458 92.4978 306.705 92.4665 304.951 92.4247" stroke="#000000" stroke-width="1.75331" stroke-linecap="round" stroke-linejoin="round" fill="none" transform="matrix(1.00331 0 0 1 860 192)"/><path d="M163.81 90.0452C162.825 90.3588 162.517 91.1015 162.56 92.0489 162.607 93.0924 162.48 94.1355 162.669 95.1823 162.883 96.3698 163.244 96.7736 164.436 96.8024 165.521 96.8286 166.608 96.7673 167.692 96.8177 169.247 96.8901 169.918 96.6104 170.151 94.6734 170.282 93.5798 170.261 92.4377 170.008 91.284 169.781 90.25 169.243 90.0681 168.443 90.0532 166.941 90.0254 165.438 90.0452 163.935 90.0452" stroke="#000000" stroke-width="1.50284" stroke-linecap="round" stroke-linejoin="round" fill="none" transform="matrix(1.00331 0 0 1 860 192)"/><path d="M129.37 85.4114C126.823 85.981 126.795 87.0486 126.77 88.9185 126.714 93.0917 126.8 97.2676 126.877 101.442 126.905 102.929 127.948 103.925 129.495 103.934 134.671 103.966 139.848 103.975 145.024 103.934 147.414 103.915 147.928 102.772 147.991 100.814 148.12 96.8109 148.1 92.7987 148 88.7936 147.95 86.767 147.002 85.3915 144.398 85.4043 139.43 85.4288 134.462 85.4114 129.495 85.4114" stroke="#000000" stroke-width="1.75331" stroke-linecap="round" stroke-linejoin="round" fill="none" transform="matrix(1.00331 0 0 1 860 192)"/><path d="M259.866 68.755C256.794 69.6453 256.4 71.5239 256.379 73.7646 256.347 77.187 256.426 80.611 256.491 84.0337 256.533 86.2488 257.606 87.8122 259.242 88.0275 260.15 88.1469 261.077 88.1605 261.995 88.1612 272.432 88.1698 282.868 88.1714 293.304 88.1613 294.774 88.1598 296.189 87.962 297.062 86.539 297.487 85.8462 297.691 85.0985 297.69 84.2843 297.685 80.4855 297.725 76.686 297.661 72.8882 297.646 71.9508 297.54 70.9768 296.95 70.1228 296.293 69.1702 295.482 68.7377 294.306 68.7402 282.868 68.7647 271.43 68.755 259.991 68.755" stroke="#000000" stroke-width="1.50284" stroke-linecap="round" stroke-linejoin="round" fill="none" transform="matrix(1.00331 0 0 1 860 192)"/><path d="M121.354 112.838C117.575 113.469 116.045 114.95 115.223 118.851 114.674 121.459 114.871 124.048 115.929 126.479 117.416 129.895 120.221 131.379 123.859 131.368 132 131.343 140.14 131.308 148.28 131.24 152.312 131.207 155.55 128.324 156.444 124.24 156.867 122.306 157.056 120.361 156.572 118.483 155.649 114.908 153.03 112.876 149.032 112.854 139.848 112.804 130.664 112.838 121.48 112.838" stroke="#000000" stroke-width="1.50284" stroke-linecap="round" stroke-linejoin="round" fill="none" transform="matrix(1.00331 0 0 1 860 192)"/><path d="M66.3755 113.089C65.4862 113.468 65.2436 114.198 65.2447 115.093 65.2519 120.77 65.2624 126.447 65.2345 132.125 65.2299 133.068 65.5761 133.61 66.5014 133.748 66.9566 133.816 67.419 133.871 67.8783 133.873 71.5519 133.882 75.2258 133.854 78.899 133.889 80.4984 133.905 80.8809 133.439 80.8894 131.999 80.9226 126.406 80.9282 120.812 80.8873 115.218 80.8753 113.58 80.3252 113.026 78.6481 113.061 74.6005 113.146 70.55 113.089 66.5007 113.089" stroke="#000000" stroke-width="1.50284" stroke-linecap="round" stroke-linejoin="round" fill="none" transform="matrix(1.00331 0 0 1 860 192)"/><path d="M164.686 114.717C163.612 114.808 163.143 115.373 163.027 116.467 162.92 117.475 162.915 118.478 162.959 119.475 162.989 120.155 163.183 120.984 164.061 121.019 165.855 121.091 167.659 121.34 169.449 120.867 170.155 120.681 170.361 120.282 170.469 119.605 170.671 118.34 170.524 117.096 170.444 115.844 170.4 115.155 170.002 114.851 169.32 114.838 167.817 114.81 166.314 114.759 164.812 114.717" stroke="#000000" stroke-width="1.50284" stroke-linecap="round" stroke-linejoin="round" fill="none" transform="matrix(1.00331 0 0 1 860 192)"/><path d="M141.392 118.223C140.995 118.467 140.557 118.342 140.14 118.342 134.88 118.352 129.62 118.349 124.36 118.349 121.42 118.349 120.236 119.82 120.786 122.733 121.28 125.351 123.132 126.547 125.863 126.584 132.583 126.676 139.307 126.717 146.025 126.567 149.017 126.501 151.66 123.634 150.884 120.233 150.64 119.16 149.861 118.465 148.657 118.34 146.279 118.095 143.896 118.294 141.517 118.223" stroke="#000000" stroke-width="1.50284" stroke-linecap="round" stroke-linejoin="round" fill="none" transform="matrix(1.00331 0 0 1 860 192)"/><path d="M228.432 219.415C227.859 219.958 227.34 222.213 227.686 222.793 228.046 223.396 228.672 223.19 229.182 223.153 229.969 223.096 230.29 222.469 230.426 221.792 230.655 220.642 230.121 219.993 228.557 219.415" stroke="#000000" stroke-width="1.25237" stroke-linecap="round" stroke-linejoin="round" fill="none" transform="matrix(1.00331 0 0 1 860 192)"/><path d="M304.2 79.0244C303.583 79.2859 303.05 79.6074 303.07 80.402 303.101 81.5707 303.131 82.7397 303.131 83.9086 303.131 84.9744 303.83 85.504 304.701 85.5023 306.829 85.498 308.959 85.6375 311.09 85.4327 311.883 85.3565 312.244 85.0128 312.34 84.2842 312.527 82.8585 312.544 81.4472 312.235 80.0219 312.053 79.1786 311.573 79.0121 310.837 79.0181 308.667 79.0357 306.496 79.0244 304.325 79.0244" stroke="#000000" stroke-width="1.50284" stroke-linecap="round" stroke-linejoin="round" fill="none" transform="matrix(1.00331 0 0 1 860 192)"/><path d="M164.436 77.8972C162.642 78.187 162.425 78.4408 162.438 80.4019 162.444 81.3206 162.468 82.244 162.569 83.1559 162.701 84.3518 163.227 84.7781 164.436 84.7839 165.73 84.79 167.024 84.7702 168.318 84.7905 169.195 84.8043 169.697 84.4576 169.696 83.5329 169.695 82.0718 169.695 80.6107 169.696 79.1496 169.696 78.3972 169.312 78.0978 168.571 78.0058 167.233 77.8399 165.897 77.9338 164.561 77.8972" stroke="#000000" stroke-width="1.50284" stroke-linecap="round" stroke-linejoin="round" fill="none" transform="matrix(1.00331 0 0 1 860 192)"/><path d="M339.642 77.0206C337.015 77.504 335.208 79.1215 334.432 81.5452 333.354 84.9148 334.487 88.5156 338.774 89.8936 343.502 91.4132 347.316 87.3234 347.227 83.6564 347.16 80.894 345.231 77.8889 342.775 77.2638 341.779 77.0105 340.776 77.0254 339.767 77.0206" stroke="#000000" stroke-width="1.75331" stroke-linecap="round" stroke-linejoin="round" fill="none" transform="matrix(1.00331 0 0 1 860 192)"/><path d="M111.586 74.0149C111.146 74.2656 110.668 74.1159 110.208 74.1343 109.001 74.1828 108.462 74.5824 108.473 75.7681 108.506 79.3169 108.612 82.8652 108.713 86.4131 108.735 87.1721 109.213 87.547 109.958 87.5363 111.211 87.5184 112.468 87.6306 113.715 87.4166 115.006 87.1951 115.567 86.6299 115.582 85.2861 115.618 82.1556 115.619 79.024 115.579 75.8936 115.566 74.9043 115.065 74.2681 113.969 74.1161 113.21 74.0111 112.463 74.0566 111.711 74.0149" stroke="#000000" stroke-width="1.50284" stroke-linecap="round" stroke-linejoin="round" fill="none" transform="matrix(1.00331 0 0 1 860 192)"/><path d="M288.295 73.6392C286.406 74.2696 285.217 75.617 284.951 77.5268 284.633 79.8178 285.287 81.8755 287.298 83.275 288.283 83.9605 290.206 83.757 291.173 82.9038 293.298 81.0274 293.494 77.3937 291.794 75.1481 290.962 74.0506 289.854 73.4494 288.42 73.6392" stroke="#000000" stroke-width="1.75331" stroke-linecap="round" stroke-linejoin="round" fill="none" transform="matrix(1.00331 0 0 1 860 192)"/><path d="M251.475 32.4363C250.279 33.2955 249.694 34.6271 250.118 35.8103 250.341 36.4314 250.653 37.1019 251.475 37.1945 252.276 37.2847 252.742 36.8109 253.101 36.1922 253.998 34.6478 253.348 33.0306 251.601 32.4363" stroke="#000000" stroke-width="1.50284" stroke-linecap="round" stroke-linejoin="round" fill="none" transform="matrix(1.00331 0 0 1 860 192)"/><path d="M148.155 220.792C146.868 221.069 145.566 220.894 144.273 220.908 141.476 220.939 138.679 220.911 135.882 220.92 134.326 220.925 133.977 221.258 134.01 222.796 134.059 225.05 133.87 227.307 134.123 229.56 134.357 231.644 134.669 231.316 136.263 231.523 137.489 231.682 138.762 231.447 140.015 231.443 144.44 231.428 148.865 231.44 153.29 231.436 154.941 231.435 155.168 231.203 155.168 229.559 155.169 227.305 155.174 225.05 155.166 222.796 155.162 221.347 154.612 220.8 153.165 220.794 151.536 220.787 149.908 220.792 148.28 220.792" stroke="#000000" stroke-width="1.75331" stroke-linecap="round" stroke-linejoin="round" fill="none" transform="matrix(1.00331 0 0 1 860 192)"/></g></svg>